<svg width="22" height="22" viewBox="0 0 22 22" fill="none" xmlns="http://www.w3.org/2000/svg">
<g clip-path="url(#clip0_3002_25735)">
<path d="M17.6179 3.37891H5.19215C4.66645 3.37891 4.23633 3.80903 4.23633 4.33473V16.7605C4.23633 17.2862 4.66645 17.7163 5.19215 17.7163H17.6179C18.1436 17.7163 18.5737 17.2862 18.5737 16.7605V4.33473C18.5737 3.80903 18.1436 3.37891 17.6179 3.37891ZM15.7062 13.893C15.7062 14.4187 15.2761 14.8488 14.7504 14.8488H8.05963C7.53393 14.8488 7.1038 14.4187 7.1038 13.893V7.20221C7.1038 6.6765 7.53393 6.24638 8.05963 6.24638H14.7504C15.2761 6.24638 15.7062 6.6765 15.7062 7.20221V13.893Z" fill="#B6DBFF"/>
<path d="M21.4409 7.19994C21.7037 7.19994 21.9188 6.98488 21.9188 6.72203C21.9188 6.45918 21.7037 6.24412 21.4409 6.24412H19.0513V5.28829H21.4409C21.7037 5.28829 21.9188 5.07323 21.9188 4.81038C21.9188 4.54753 21.7037 4.33246 21.4409 4.33246H19.0513C19.0513 3.54391 18.4061 2.89873 17.6176 2.89873V0.509163C17.6176 0.246311 17.4025 0.03125 17.1397 0.03125C16.8768 0.03125 16.6617 0.246311 16.6617 0.509163V2.89873H15.7059V0.509163C15.7059 0.246311 15.4909 0.03125 15.228 0.03125C14.9652 0.03125 14.7501 0.246311 14.7501 0.509163V2.89873H13.7943V0.509163C13.7943 0.246311 13.5792 0.03125 13.3164 0.03125C13.0535 0.03125 12.8384 0.246311 12.8384 0.509163V2.89873H11.8826V0.509163C11.8826 0.246311 11.6676 0.03125 11.4047 0.03125C11.1419 0.03125 10.9268 0.246311 10.9268 0.509163V2.89873H9.97097V0.509163C9.97097 0.246311 9.75591 0.03125 9.49305 0.03125C9.2302 0.03125 9.01514 0.246311 9.01514 0.509163V2.89873H8.05932V0.509163C8.05932 0.246311 7.84425 0.03125 7.5814 0.03125C7.31855 0.03125 7.10349 0.246311 7.10349 0.509163V2.89873H6.14767V0.509163C6.14767 0.246311 5.9326 0.03125 5.66975 0.03125C5.4069 0.03125 5.19184 0.246311 5.19184 0.509163V2.89873C4.40328 2.89873 3.7581 3.54391 3.7581 4.33246H1.36854C1.10569 4.33246 0.890625 4.54753 0.890625 4.81038C0.890625 5.07323 1.10569 5.28829 1.36854 5.28829H3.7581V6.24412H1.36854C1.10569 6.24412 0.890625 6.45918 0.890625 6.72203C0.890625 6.98488 1.10569 7.19994 1.36854 7.19994H3.7581V8.15577H1.36854C1.10569 8.15577 0.890625 8.37083 0.890625 8.63368C0.890625 8.89653 1.10569 9.11159 1.36854 9.11159H3.7581V10.0674H1.36854C1.10569 10.0674 0.890625 10.2825 0.890625 10.5453C0.890625 10.8082 1.10569 11.0232 1.36854 11.0232H3.7581V11.9791H1.36854C1.10569 11.9791 0.890625 12.1941 0.890625 12.457C0.890625 12.7198 1.10569 12.9349 1.36854 12.9349H3.7581V13.8907H1.36854C1.10569 13.8907 0.890625 14.1058 0.890625 14.3686C0.890625 14.6315 1.10569 14.8465 1.36854 14.8465H3.7581V15.8024H1.36854C1.10569 15.8024 0.890625 16.0174 0.890625 16.2803C0.890625 16.5431 1.10569 16.7582 1.36854 16.7582H3.7581C3.7581 17.5468 4.40328 18.1919 5.19184 18.1919V20.5815C5.19184 20.8443 5.4069 21.0594 5.66975 21.0594C5.9326 21.0594 6.14767 20.8443 6.14767 20.5815V18.1919H7.10349V20.5815C7.10349 20.8443 7.31855 21.0594 7.5814 21.0594C7.84425 21.0594 8.05932 20.8443 8.05932 20.5815V18.1919H9.01514V20.5815C9.01514 20.8443 9.2302 21.0594 9.49305 21.0594C9.75591 21.0594 9.97097 20.8443 9.97097 20.5815V18.1919H10.9268V20.5815C10.9268 20.8443 11.1419 21.0594 11.4047 21.0594C11.6676 21.0594 11.8826 20.8443 11.8826 20.5815V18.1919H12.8384V20.5815C12.8384 20.8443 13.0535 21.0594 13.3164 21.0594C13.5792 21.0594 13.7943 20.8443 13.7943 20.5815V18.1919H14.7501V20.5815C14.7501 20.8443 14.9652 21.0594 15.228 21.0594C15.4909 21.0594 15.7059 20.8443 15.7059 20.5815V18.1919H16.6617V20.5815C16.6617 20.8443 16.8768 21.0594 17.1397 21.0594C17.4025 21.0594 17.6176 20.8443 17.6176 20.5815V18.1919C18.4061 18.1919 19.0513 17.5468 19.0513 16.7582H21.4409C21.7037 16.7582 21.9188 16.5431 21.9188 16.2803C21.9188 16.0174 21.7037 15.8024 21.4409 15.8024H19.0513V14.8465H21.4409C21.7037 14.8465 21.9188 14.6315 21.9188 14.3686C21.9188 14.1058 21.7037 13.8907 21.4409 13.8907H19.0513V12.9349H21.4409C21.7037 12.9349 21.9188 12.7198 21.9188 12.457C21.9188 12.1941 21.7037 11.9791 21.4409 11.9791H19.0513V11.0232H21.4409C21.7037 11.0232 21.9188 10.8082 21.9188 10.5453C21.9188 10.2825 21.7037 10.0674 21.4409 10.0674H19.0513V9.11159H21.4409C21.7037 9.11159 21.9188 8.89653 21.9188 8.63368C21.9188 8.37083 21.7037 8.15577 21.4409 8.15577H19.0513V7.19994H21.4409ZM18.0955 16.7582C18.0955 17.021 17.8804 17.2361 17.6176 17.2361H5.19184C4.92899 17.2361 4.71393 17.021 4.71393 16.7582V4.33246C4.71393 4.06961 4.92899 3.85455 5.19184 3.85455H17.6176C17.8804 3.85455 18.0955 4.06961 18.0955 4.33246V16.7582Z" fill="#63A8F1"/>
<path d="M14.7495 5.76562H8.05874C7.27018 5.76562 6.625 6.41081 6.625 7.19936V13.8901C6.625 14.6787 7.27018 15.3239 8.05874 15.3239H14.7495C15.5381 15.3239 16.1833 14.6787 16.1833 13.8901V7.19936C16.1833 6.41081 15.5381 5.76562 14.7495 5.76562ZM15.2274 13.8901C15.2274 14.153 15.0124 14.3681 14.7495 14.3681H8.05874C7.79589 14.3681 7.58083 14.153 7.58083 13.8901V7.19936C7.58083 6.93651 7.79589 6.72145 8.05874 6.72145H14.7495C15.0124 6.72145 15.2274 6.93651 15.2274 7.19936V13.8901Z" fill="#63A8F1"/>
</g>
<defs>
<clipPath id="clip0_3002_25735">
<rect width="21.0282" height="21.0282" fill="white" transform="translate(0.890625 0.0351562)"/>
</clipPath>
</defs>
</svg>
