<svg width="87" height="87" viewBox="0 0 87 87" fill="none" xmlns="http://www.w3.org/2000/svg">
<path d="M85.5156 43.7054C86.0963 43.7054 86.5684 43.2345 86.5542 42.654C86.2849 31.6021 81.7772 21.0598 73.9411 13.2236C65.8568 5.13935 54.8922 0.597657 43.4593 0.597656C32.0264 0.597655 21.0618 5.13935 12.9775 13.2236C5.14139 21.0597 0.633703 31.6021 0.36437 42.654C0.350223 43.2345 0.822294 43.7054 1.40297 43.7054L9.7116 43.7054C10.2923 43.7054 10.7612 43.2343 10.7799 42.6539C11.0464 34.3639 14.4561 26.4691 20.3395 20.5856C26.4713 14.4539 34.7877 11.0091 43.4593 11.0091C52.1309 11.0091 60.4473 14.4539 66.5791 20.5856C72.4625 26.4691 75.8722 34.3639 76.1387 42.6539C76.1573 43.2343 76.6263 43.7054 77.207 43.7054H85.5156Z" fill="#0188F7"/>
<path d="M85.5156 43.7054C86.0963 43.7054 86.5684 43.2345 86.5542 42.654C86.3519 34.3569 83.7582 26.2939 79.0854 19.4349C78.7585 18.955 78.1004 18.8476 77.6286 19.1861L70.8781 24.0302C70.4063 24.3687 70.2999 25.0248 70.6231 25.5072C74.0307 30.5934 75.9419 36.535 76.1387 42.654C76.1573 43.2344 76.6263 43.7054 77.207 43.7054H85.5156Z" fill="#026AA2"/>
<path d="M81.2345 22.9374C79.9912 20.676 78.5474 18.5308 76.9204 16.5277L68.8389 23.0917C70.0729 24.611 71.168 26.2381 72.111 27.9533L81.2345 22.9374Z" fill="#FAFAFA"/>
<circle cx="42.9331" cy="42.1304" r="5.78274" fill="#026AA2"/>
<circle cx="42.9332" cy="42.1285" r="2.62852" fill="#FAFAFA"/>
<path d="M66.523 27.5015L47.7995 43.136L44.6437 38.0836L66.523 27.5015Z" fill="#026AA2"/>
</svg>
