<svg width="27" height="22" viewBox="0 0 27 22" fill="none" xmlns="http://www.w3.org/2000/svg">
<g clip-path="url(#clip0_3002_25745)">
<path d="M20.3384 10.9944C20.3384 7.79557 17.7513 5.21484 14.5589 5.21484C12.2585 5.21484 10.2704 6.55937 9.33368 8.50288L10.761 10.4974C10.9458 10.7523 10.9203 11.1091 10.6909 11.3321C10.5635 11.4596 10.4042 11.5233 10.2322 11.5233C10.0983 11.5233 9.97089 11.4787 9.85619 11.4022L8.79204 10.6376C8.79204 10.7586 8.7793 10.8733 8.7793 10.9944C8.7793 14.1932 11.3664 16.774 14.5652 16.774C17.7641 16.774 20.3448 14.1869 20.3448 10.9944H20.3384ZM12.9786 10.9944C12.9786 10.1214 13.6859 9.4141 14.5589 9.4141C15.4318 9.4141 16.1328 10.1214 16.1328 10.9944C16.1328 11.8674 15.4255 12.5747 14.5589 12.5747C13.6922 12.5747 12.9786 11.8674 12.9786 10.9944Z" fill="#B6DBFF"/>
<path d="M0.890625 19.9283V2.06077C0.890625 1.18778 1.59794 0.480469 2.47092 0.480469H24.5505C25.4171 0.480469 26.1308 1.18778 26.1308 2.06077V19.9347C26.1308 20.8013 25.4235 21.515 24.5505 21.515H2.47092C1.60431 21.515 0.890625 20.8077 0.890625 19.9347V19.9283ZM25.073 2.06077C25.073 1.76765 24.8372 1.53188 24.5441 1.53188H2.47092C2.18418 1.53188 1.94203 1.76765 1.94203 2.06077V19.9347C1.94203 20.2278 2.1778 20.4636 2.47092 20.4636H24.5505C24.8372 20.4636 25.0794 20.2278 25.0794 19.9347V2.06077H25.073Z" fill="#63A8F1"/>
<path d="M22.4479 5.20828C23.0286 5.20828 23.4993 4.73755 23.4993 4.15688C23.4993 3.5762 23.0286 3.10547 22.4479 3.10547C21.8672 3.10547 21.3965 3.5762 21.3965 4.15688C21.3965 4.73755 21.8672 5.20828 22.4479 5.20828Z" fill="#B6DBFF"/>
<path d="M22.4479 18.8841C23.0286 18.8841 23.4993 18.4133 23.4993 17.8327C23.4993 17.252 23.0286 16.7812 22.4479 16.7812C21.8672 16.7812 21.3965 17.252 21.3965 17.8327C21.3965 18.4133 21.8672 18.8841 22.4479 18.8841Z" fill="#B6DBFF"/>
<path d="M4.56703 5.20828C5.14771 5.20828 5.61844 4.73755 5.61844 4.15688C5.61844 3.5762 5.14771 3.10547 4.56703 3.10547C3.98636 3.10547 3.51562 3.5762 3.51562 4.15688C3.51562 4.73755 3.98636 5.20828 4.56703 5.20828Z" fill="#B6DBFF"/>
<path d="M4.56703 18.8841C5.14771 18.8841 5.61844 18.4133 5.61844 17.8327C5.61844 17.252 5.14771 16.7812 4.56703 16.7812C3.98636 16.7812 3.51562 17.252 3.51562 17.8327C3.51562 18.4133 3.98636 18.8841 4.56703 18.8841Z" fill="#B6DBFF"/>
<path d="M20.8672 4.15596C20.8672 5.02257 21.5745 5.73626 22.4475 5.73626C23.3205 5.73626 24.0214 5.02894 24.0214 4.15596C24.0214 3.28297 23.3141 2.58203 22.4475 2.58203C21.5809 2.58203 20.8672 3.28934 20.8672 4.15596ZM22.97 4.15596C22.97 4.44908 22.7342 4.68485 22.4475 4.68485C22.1607 4.68485 21.9186 4.44908 21.9186 4.15596C21.9186 3.86284 22.1544 3.63344 22.4475 3.63344C22.7406 3.63344 22.97 3.86921 22.97 4.15596Z" fill="#63A8F1"/>
<path d="M20.8672 17.8303C20.8672 18.6969 21.5745 19.4042 22.4475 19.4042C23.3205 19.4042 24.0214 18.6969 24.0214 17.8303C24.0214 16.9637 23.3141 16.25 22.4475 16.25C21.5809 16.25 20.8672 16.9573 20.8672 17.8303ZM22.97 17.8303C22.97 18.1234 22.7342 18.3528 22.4475 18.3528C22.1607 18.3528 21.9186 18.117 21.9186 17.8303C21.9186 17.5436 22.1544 17.3014 22.4475 17.3014C22.7406 17.3014 22.97 17.5372 22.97 17.8303Z" fill="#63A8F1"/>
<path d="M6.14692 4.15596C6.14692 3.28934 5.43961 2.58203 4.56663 2.58203C3.69364 2.58203 2.98633 3.28934 2.98633 4.15596C2.98633 5.02257 3.69364 5.73626 4.56663 5.73626C5.43961 5.73626 6.14692 5.02894 6.14692 4.15596ZM4.04411 4.15596C4.04411 3.86284 4.27988 3.63344 4.56663 3.63344C4.85337 3.63344 5.09552 3.86921 5.09552 4.15596C5.09552 4.44271 4.85975 4.68485 4.56663 4.68485C4.27351 4.68485 4.04411 4.44908 4.04411 4.15596Z" fill="#63A8F1"/>
<path d="M6.14692 17.8303C6.14692 16.9637 5.43961 16.25 4.56663 16.25C3.69364 16.25 2.98633 16.9573 2.98633 17.8303C2.98633 18.7033 3.69364 19.4042 4.56663 19.4042C5.43961 19.4042 6.14692 18.6969 6.14692 17.8303ZM4.04411 17.8303C4.04411 17.5372 4.27988 17.3014 4.56663 17.3014C4.85337 17.3014 5.09552 17.5372 5.09552 17.8303C5.09552 18.1234 4.85975 18.3528 4.56663 18.3528C4.27351 18.3528 4.04411 18.117 4.04411 17.8303Z" fill="#63A8F1"/>
<path d="M16.6607 10.9934C16.6607 9.83371 15.7176 8.89062 14.5579 8.89062C13.3982 8.89062 12.4551 9.83371 12.4551 10.9934C12.4551 12.1532 13.3982 13.0963 14.5579 13.0963C15.7176 13.0963 16.6607 12.1532 16.6607 10.9934ZM13.5065 10.9934C13.5065 10.4136 13.978 9.94203 14.5579 9.94203C15.1378 9.94203 15.6093 10.4136 15.6093 10.9934C15.6093 11.5733 15.1378 12.0448 14.5579 12.0448C13.978 12.0448 13.5065 11.5733 13.5065 10.9934Z" fill="#63A8F1"/>
<path d="M20.8668 10.992C20.8668 7.51284 18.0376 4.68359 14.5584 4.68359C12.4301 4.68359 10.4483 5.77961 9.28222 7.52558L8.57491 6.5379C8.24356 6.0791 7.73378 5.78598 7.17303 5.74137C6.61228 5.69677 6.0579 5.89431 5.65645 6.29575C5.29324 6.65897 5.0957 7.14325 5.0957 7.65303C5.0957 7.704 5.0957 7.76135 5.10208 7.81233C5.14668 8.37308 5.4398 8.88923 5.8986 9.21421L8.24993 10.8965C8.24993 10.8965 8.24993 10.9602 8.24993 10.992C8.24993 14.4712 11.0792 17.3005 14.5584 17.3005C18.0376 17.3005 20.8668 14.4712 20.8668 10.992ZM6.51032 8.36671C6.30004 8.22015 6.1726 7.98438 6.14711 7.72949C6.12162 7.48098 6.21721 7.22609 6.39563 7.0413C6.57405 6.86288 6.82893 6.76729 7.08382 6.79278C7.33871 6.8119 7.56811 6.94571 7.72104 7.156L8.89989 8.80639C8.89989 8.80639 8.89989 8.80639 8.89989 8.81276L10.2317 10.6734L10.3273 10.8072C10.3273 10.8072 10.3273 10.8072 10.3273 10.8136C10.3591 10.8646 10.3527 10.9219 10.3145 10.9666C10.3145 10.9666 10.3081 10.9666 10.3018 10.9666C10.2826 10.9857 10.2572 10.992 10.2317 10.9984C10.2062 10.9984 10.1871 10.9984 10.1616 10.9793H10.1552L9.73464 10.6798L6.50395 8.37308L6.51032 8.36671ZM9.34594 11.6866L9.54985 11.8332H9.55622C9.55622 11.8332 9.56259 11.8395 9.56897 11.8459C9.66455 11.9096 9.7665 11.9606 9.87483 11.9925C9.87483 11.9925 9.88758 11.9925 9.89395 11.9988C10.0023 12.0307 10.1106 12.0498 10.2189 12.0498C10.2253 12.0498 10.2317 12.0498 10.238 12.0498C10.2508 12.0498 10.2572 12.0498 10.2699 12.0498C10.3209 12.0498 10.3782 12.0434 10.4292 12.0371C10.4483 12.0371 10.4738 12.0371 10.4929 12.0243C10.5439 12.0116 10.5885 11.9988 10.6331 11.9797C10.6586 11.9734 10.6841 11.967 10.7032 11.9542C10.7478 11.9351 10.7861 11.916 10.8243 11.8905C10.8498 11.8778 10.8753 11.865 10.9008 11.8459C10.9326 11.8268 10.9645 11.7949 10.99 11.7694C11.0154 11.7503 11.0409 11.7312 11.0664 11.7057C11.0919 11.6802 11.1047 11.6547 11.1238 11.6293C11.1493 11.5974 11.1811 11.5655 11.2002 11.5337C11.2194 11.5082 11.2321 11.4763 11.2512 11.4445C11.2703 11.4126 11.2895 11.3744 11.3086 11.3425C11.3213 11.3107 11.3341 11.2788 11.3404 11.2469C11.3532 11.2087 11.3659 11.1705 11.3723 11.1322C11.3787 11.1004 11.385 11.0685 11.3914 11.0366C11.3914 10.9984 11.4042 10.9538 11.4042 10.9156C11.4042 10.9028 11.4042 10.8837 11.4042 10.871C11.4042 10.8582 11.4042 10.8519 11.4042 10.8391C11.4042 10.7372 11.385 10.6352 11.3595 10.5332C11.3595 10.5205 11.3468 10.5014 11.3404 10.4886C11.3022 10.3803 11.2576 10.2784 11.1875 10.1828L11.0282 9.95975L9.9513 8.44955C10.8753 6.78641 12.6531 5.72863 14.5647 5.72863C17.4641 5.72863 19.8218 8.08633 19.8218 10.9857C19.8218 13.885 17.4641 16.2427 14.5647 16.2427C11.9012 16.2427 9.69004 14.2482 9.35231 11.6739L9.34594 11.6866Z" fill="#63A8F1"/>
</g>
<defs>
<clipPath id="clip0_3002_25745">
<rect width="25.2338" height="21.0282" fill="white" transform="translate(0.890625 0.480469)"/>
</clipPath>
</defs>
</svg>
