<svg width="25" height="26" viewBox="0 0 25 26" fill="none" xmlns="http://www.w3.org/2000/svg">
<rect y="0.5" width="25" height="25" rx="12.5" fill="#D1EBEE"/>
<g clip-path="url(#clip0_3006_147)">
<path d="M16.711 9.375C17.445 10.1093 17.9449 11.0448 18.1473 12.0631C18.3497 13.0815 18.2457 14.137 17.8483 15.0962C17.4508 16.0554 16.7779 16.8752 15.9146 17.452C15.0513 18.0288 14.0363 18.3367 12.998 18.3367C11.9598 18.3367 10.9448 18.0288 10.0815 17.452C9.21816 16.8752 8.54526 16.0554 8.14785 15.0962C7.75044 14.137 7.64637 13.0815 7.8488 12.0631C8.05123 11.0448 8.55108 10.1093 9.28513 9.375" stroke="#488B92" stroke-width="1.5" stroke-linecap="round" stroke-linejoin="round"/>
<path d="M13 6.66797V12.5013" stroke="#488B92" stroke-width="1.5" stroke-linecap="round" stroke-linejoin="round"/>
</g>
<defs>
<clipPath id="clip0_3006_147">
<rect width="14" height="14" fill="white" transform="translate(6 5.5)"/>
</clipPath>
</defs>
</svg>
