<svg width="27" height="14" viewBox="0 0 27 14" fill="none" xmlns="http://www.w3.org/2000/svg">
<g clip-path="url(#clip0_3002_25764)">
<path d="M4.49756 9.91016H22.4189V12.2939C22.4189 12.8066 21.9948 13.2295 21.4686 13.2295H5.44248C4.9217 13.2295 4.49219 12.8119 4.49219 12.2939V9.91016H4.49756Z" fill="#B6DBFF"/>
<path d="M21.1421 13.7542H5.86759C4.89582 13.7542 4.11196 12.9773 4.11196 12.0206V10.9635H3.09187C1.8785 10.9635 0.890625 9.99097 0.890625 8.79644V2.25299C0.890625 1.05847 1.8785 0.0859375 3.09187 0.0859375H23.9232C25.1365 0.0859375 26.1244 1.05847 26.1244 2.25299V8.79644C26.1244 9.99097 25.1365 10.9635 23.9232 10.9635H22.9031V12.0206C22.9031 12.9773 22.1139 13.7542 21.1421 13.7542ZM3.09187 1.14304C2.46908 1.14304 1.9644 1.63987 1.9644 2.25299V8.79644C1.9644 9.40956 2.46908 9.9064 3.09187 9.9064H4.64885C4.94414 9.9064 5.18574 10.1442 5.18574 10.4349V12.0206C5.18574 12.3906 5.49177 12.6971 5.86759 12.6971H21.1421C21.5179 12.6971 21.8293 12.3959 21.8293 12.0206V10.4349C21.8293 10.1442 22.0709 9.9064 22.3662 9.9064H23.9232C24.546 9.9064 25.0506 9.40956 25.0506 8.79644V2.25299C25.0506 1.63987 24.546 1.14304 23.9232 1.14304H3.09187Z" fill="#63A8F1"/>
<path d="M8.55716 7.14701C8.26187 7.14701 8.02027 6.90917 8.02027 6.61846V4.52541C8.02027 4.44084 7.95047 4.37741 7.86994 4.37741H6.28075C6.19485 4.37741 6.13042 4.44612 6.13042 4.52541V6.61846C6.13042 6.90917 5.88882 7.14701 5.59353 7.14701C5.29824 7.14701 5.05664 6.90917 5.05664 6.61846V4.52541C5.05664 3.85943 5.60427 3.32031 6.28075 3.32031H7.86994C8.54642 3.32031 9.09405 3.85943 9.09405 4.52541V6.61846C9.09405 6.90917 8.85245 7.14701 8.55716 7.14701Z" fill="#63A8F1"/>
<path d="M14.9888 7.14701C14.6935 7.14701 14.4519 6.90917 14.4519 6.61846V4.52541C14.4519 4.44084 14.3821 4.37741 14.3016 4.37741H12.7124C12.6265 4.37741 12.5621 4.44612 12.5621 4.52541V6.61846C12.5621 6.90917 12.3205 7.14701 12.0252 7.14701C11.7299 7.14701 11.4883 6.90917 11.4883 6.61846V4.52541C11.4883 3.85943 12.0359 3.32031 12.7124 3.32031H14.3016C14.9781 3.32031 15.5257 3.85943 15.5257 4.52541V6.61846C15.5257 6.90917 15.2841 7.14701 14.9888 7.14701Z" fill="#63A8F1"/>
<path d="M21.4204 7.14701C21.1252 7.14701 20.8836 6.90917 20.8836 6.61846V4.52541C20.8836 4.44084 20.8138 4.37741 20.7332 4.37741H19.144C19.0581 4.37741 18.9937 4.44612 18.9937 4.52541V6.61846C18.9937 6.90917 18.7521 7.14701 18.4568 7.14701C18.1615 7.14701 17.9199 6.90917 17.9199 6.61846V4.52541C17.9199 3.85943 18.4675 3.32031 19.144 3.32031H20.7332C21.4097 3.32031 21.9573 3.85943 21.9573 4.52541V6.61846C21.9573 6.90917 21.7157 7.14701 21.4204 7.14701Z" fill="#63A8F1"/>
<path d="M8.40212 13.7513C8.10683 13.7513 7.86523 13.5135 7.86523 13.2228V10.5325C7.86523 10.2418 8.10683 10.0039 8.40212 10.0039C8.69741 10.0039 8.93901 10.2418 8.93901 10.5325V13.2228C8.93901 13.5135 8.69741 13.7513 8.40212 13.7513Z" fill="#63A8F1"/>
<path d="M11.8533 13.7513C11.558 13.7513 11.3164 13.5135 11.3164 13.2228V10.5325C11.3164 10.2418 11.558 10.0039 11.8533 10.0039C12.1486 10.0039 12.3902 10.2418 12.3902 10.5325V13.2228C12.3902 13.5135 12.1486 13.7513 11.8533 13.7513Z" fill="#63A8F1"/>
<path d="M14.99 13.7513C14.6947 13.7513 14.4531 13.5135 14.4531 13.2228V10.5325C14.4531 10.2418 14.6947 10.0039 14.99 10.0039C15.2853 10.0039 15.5269 10.2418 15.5269 10.5325V13.2228C15.5269 13.5135 15.2853 13.7513 14.99 13.7513Z" fill="#63A8F1"/>
<path d="M18.4568 13.7513C18.1615 13.7513 17.9199 13.5135 17.9199 13.2228V10.5325C17.9199 10.2418 18.1615 10.0039 18.4568 10.0039C18.7521 10.0039 18.9937 10.2418 18.9937 10.5325V13.2228C18.9937 13.5135 18.7521 13.7513 18.4568 13.7513Z" fill="#63A8F1"/>
<path d="M22.3656 10.9673H4.64822C4.35293 10.9673 4.11133 10.7294 4.11133 10.4387C4.11133 10.148 4.35293 9.91016 4.64822 9.91016H22.3656C22.6609 9.91016 22.9025 10.148 22.9025 10.4387C22.9025 10.7294 22.6609 10.9673 22.3656 10.9673Z" fill="#63A8F1"/>
</g>
<defs>
<clipPath id="clip0_3002_25764">
<rect width="25.2338" height="13.6683" fill="white" transform="translate(0.890625 0.0859375)"/>
</clipPath>
</defs>
</svg>
