<svg width="87" height="87" viewBox="0 0 87 87" fill="none" xmlns="http://www.w3.org/2000/svg">
<path d="M85.5566 43.7054C86.1373 43.7054 86.6094 43.2345 86.5952 42.654C86.3259 31.6021 81.8182 21.0598 73.9821 13.2236C65.8978 5.13935 54.9332 0.597657 43.5003 0.597656C32.0674 0.597655 21.1028 5.13935 13.0185 13.2236C5.18241 21.0597 0.674719 31.6021 0.405385 42.654C0.391239 43.2345 0.86331 43.7054 1.44399 43.7054L9.75261 43.7054C10.3333 43.7054 10.8023 43.2343 10.8209 42.6539C11.0874 34.3639 14.4971 26.4691 20.3805 20.5856C26.5123 14.4539 34.8287 11.0091 43.5003 11.0091C52.1719 11.0091 60.4883 14.4539 66.6201 20.5856C72.5036 26.4691 75.9132 34.3639 76.1797 42.6539C76.1984 43.2343 76.6673 43.7054 77.248 43.7054H85.5566Z" fill="#0188F7"/>
<path d="M85.5566 43.7054C86.1373 43.7054 86.6094 43.2346 86.5952 42.6541C86.4659 37.3514 85.3588 32.1149 83.3267 27.2088C81.1603 21.9787 77.985 17.2265 73.9821 13.2236C69.9792 9.22069 65.227 6.0454 59.9969 3.87904C55.0908 1.84687 49.8543 0.739832 44.5516 0.610477C43.9711 0.596316 43.5003 1.06839 43.5003 1.64906V9.95769C43.5003 10.5384 43.9712 11.0073 44.5516 11.026C48.4868 11.1526 52.3698 11.989 56.0126 13.498C59.9795 15.1411 63.5839 17.5495 66.6201 20.5856C69.6562 23.6217 72.0646 27.2262 73.7077 31.1931C75.2167 34.8359 76.0531 38.7189 76.1797 42.6541C76.1984 43.2345 76.6673 43.7054 77.248 43.7054H85.5566Z" fill="#026AA2"/>
<path d="M46.0734 0.674517C43.4974 0.520482 40.9127 0.598074 38.3506 0.906356L39.5944 11.2432C41.5377 11.0094 43.4981 10.9506 45.4519 11.0674L46.0734 0.674517Z" fill="#FAFAFA"/>
<circle cx="42.9742" cy="42.1304" r="5.78274" fill="#026AA2"/>
<circle cx="42.9742" cy="42.1285" r="2.62852" fill="#FAFAFA"/>
<path d="M42.5569 13.2844L45.8922 37.448L39.9353 37.4466L42.5569 13.2844Z" fill="#026AA2"/>
</svg>
