<svg width="38" height="42" viewBox="0 0 38 42" fill="none" xmlns="http://www.w3.org/2000/svg">
<rect width="38" height="42" rx="12" fill="#FAFAFA"/>
<g clip-path="url(#clip0_3100_79)">
<path d="M8 17.9619C8 15.175 8 13.7815 8.54237 12.717C9.01946 11.7807 9.78072 11.0195 10.717 10.5424C11.7815 10 13.175 10 15.9619 10H22.0381C24.825 10 26.2185 10 27.283 10.5424C28.2193 11.0195 28.9805 11.7807 29.4576 12.717C30 13.7815 30 15.175 30 17.9619V24.0381C30 26.825 30 28.2185 29.4576 29.283C28.9805 30.2193 28.2193 30.9805 27.283 31.4576C26.2185 32 24.825 32 22.0381 32H15.9619C13.175 32 11.7815 32 10.717 31.4576C9.78072 30.9805 9.01946 30.2193 8.54237 29.283C8 28.2185 8 26.825 8 24.0381V17.9619Z" fill="#00005B"/>
<path d="M17.2628 23.7996H13.8536L13.16 26.0138C13.1407 26.0959 13.0651 26.1541 12.9829 26.15H11.2561C11.1577 26.15 11.1232 26.0945 11.1528 25.9835L14.1045 17.3008C14.134 17.21 14.1635 17.1212 14.1931 17.0051C14.2317 16.8031 14.2514 16.5979 14.2521 16.3921C14.2436 16.3312 14.2961 16.2774 14.3554 16.2861H16.7019C16.7707 16.2861 16.81 16.3113 16.82 16.3618L20.1702 25.9987C20.1997 26.0997 20.1702 26.1501 20.0816 26.15H18.163C18.0957 26.1577 18.0315 26.1115 18.0154 26.0441L17.2628 23.7996ZM14.3849 21.9326H16.7167C16.3336 20.6235 15.9012 19.3316 15.5508 18.0122C15.1537 19.3808 14.7871 20.65 14.3849 21.9326Z" fill="#9999FF"/>
<path d="M22.6618 22.9446C22.7975 24.0689 23.7416 24.6049 24.787 24.5821C25.3765 24.5705 26.0065 24.479 26.5573 24.2561C26.6064 24.2159 26.6311 24.241 26.6311 24.3318V25.7698C26.6358 25.8446 26.6045 25.9114 26.5425 25.9514C25.8579 26.2624 25.072 26.3562 24.3295 26.3443C22.1155 26.3443 20.595 24.7843 20.5956 22.5147C20.5898 20.3639 21.9852 18.5493 24.1524 18.5493C25.9894 18.5017 27.2613 19.9725 27.2664 21.8033C27.2664 22.1367 27.2478 22.4713 27.2073 22.8023C27.1995 22.8705 27.1414 22.9234 27.0745 22.9234C25.6073 22.9234 24.133 22.9446 22.6618 22.9446ZM22.6618 21.5657C23.4795 21.5657 24.3019 21.5946 25.119 21.5581C25.2419 21.5456 25.3331 21.5223 25.3331 21.3946C25.316 20.7158 24.7432 20.1577 24.0786 20.1836C23.2755 20.1338 22.7616 20.8117 22.6618 21.5657Z" fill="#9999FF"/>
</g>
<defs>
<clipPath id="clip0_3100_79">
<rect width="22" height="22" fill="white" transform="translate(8 10)"/>
</clipPath>
</defs>
</svg>
