<svg width="14" height="14" viewBox="0 0 14 14" fill="none" xmlns="http://www.w3.org/2000/svg">
<mask id="mask0_2186_14315" style="mask-type:alpha" maskUnits="userSpaceOnUse" x="0" y="0" width="14" height="14">
<rect y="0.257812" width="13.4883" height="13.4883" fill="#D9D9D9"/>
</mask>
<g mask="url(#mask0_2186_14315)">
<path d="M6.74512 0.820312L11.8313 3.85518C11.9999 3.95821 12.1311 4.09871 12.2247 4.27668C12.3184 4.45465 12.3652 4.64199 12.3652 4.8387V10.9365C12.3652 11.2456 12.2552 11.5102 12.0351 11.7304C11.8149 11.9505 11.5503 12.0605 11.2412 12.0605H2.24902C1.93992 12.0605 1.6753 11.9505 1.45518 11.7304C1.23506 11.5102 1.125 11.2456 1.125 10.9365V4.8387C1.125 4.64199 1.17183 4.45465 1.2655 4.27668C1.35917 4.09871 1.49031 3.95821 1.65891 3.85518L6.74512 0.820312ZM6.74512 7.36775L11.1288 4.75439L6.74512 2.14104L2.36143 4.75439L6.74512 7.36775ZM6.74512 8.68848L2.24902 5.99082V10.9365H11.2412V5.99082L6.74512 8.68848Z" fill="#177C9A"/>
</g>
</svg>
