<svg width="38" height="42" viewBox="0 0 38 42" fill="none" xmlns="http://www.w3.org/2000/svg">
<rect width="38" height="42" rx="12" fill="#FAFAFA"/>
<path d="M15.362 32.0013C17.386 32.0013 19.0286 30.3586 19.0286 28.3346V24.668H15.362C13.338 24.668 11.6953 26.3106 11.6953 28.3346C11.6953 30.3586 13.338 32.0013 15.362 32.0013Z" fill="#0ACF83"/>
<path d="M11.6953 20.9987C11.6953 18.9747 13.338 17.332 15.362 17.332H19.0286V24.6654H15.362C13.338 24.6654 11.6953 23.0227 11.6953 20.9987Z" fill="#A259FF"/>
<path d="M11.6953 13.6667C11.6953 11.6427 13.338 10 15.362 10H19.0286V17.3333H15.362C13.338 17.3333 11.6953 15.6907 11.6953 13.6667Z" fill="#F24E1E"/>
<path d="M19.0293 10H22.696C24.72 10 26.3626 11.6427 26.3626 13.6667C26.3626 15.6907 24.72 17.3333 22.696 17.3333H19.0293V10Z" fill="#FF7262"/>
<path d="M26.3626 20.9987C26.3626 23.0227 24.72 24.6654 22.696 24.6654C20.672 24.6654 19.0293 23.0227 19.0293 20.9987C19.0293 18.9747 20.672 17.332 22.696 17.332C24.72 17.332 26.3626 18.9747 26.3626 20.9987Z" fill="#1ABCFE"/>
</svg>
