<svg width="12" height="14" viewBox="0 0 12 14" fill="none" xmlns="http://www.w3.org/2000/svg">
<path d="M3 0.75C2.65482 0.75 2.375 1.02982 2.375 1.375C2.375 1.72018 2.65482 2 3 2H7.60417C7.94934 2 8.22917 1.72018 8.22917 1.375C8.22917 1.02982 7.94934 0.75 7.60417 0.75H3Z" fill="#667085"/>
<path d="M6.125 5.75C6.125 5.40482 5.84518 5.125 5.5 5.125C5.15482 5.125 4.875 5.40482 4.875 5.75V8.24998C4.875 8.41574 4.94085 8.57471 5.05805 8.69192L5.99555 9.62944C6.23963 9.87352 6.63536 9.87352 6.87944 9.62945C7.12352 9.38537 7.12352 8.98964 6.87945 8.74556L6.125 7.9911V5.75Z" fill="#667085"/>
<path fill-rule="evenodd" clip-rule="evenodd" d="M5.5 2.625C2.56599 2.625 0.1875 5.00349 0.1875 7.9375C0.1875 10.8715 2.56599 13.25 5.5 13.25C8.43401 13.25 10.8125 10.8715 10.8125 7.9375C10.8125 7.09144 10.6147 6.29158 10.2629 5.58162C10.2816 5.56675 10.2997 5.55066 10.317 5.53333L10.942 4.90833C11.1861 4.66426 11.1861 4.26853 10.942 4.02445C10.698 3.78037 10.3022 3.78037 10.0582 4.02445L9.56527 4.51734C8.59075 3.36021 7.13124 2.625 5.5 2.625ZM1.4375 7.9375C1.4375 5.69384 3.25634 3.875 5.5 3.875C7.74366 3.875 9.5625 5.69384 9.5625 7.9375C9.5625 10.1812 7.74366 12 5.5 12C3.25634 12 1.4375 10.1812 1.4375 7.9375Z" fill="#667085"/>
</svg>
