<svg width="464" height="382" viewBox="0 0 464 382" fill="none" xmlns="http://www.w3.org/2000/svg">
<g clip-path="url(#clip0_3002_25250)">
<g opacity="0.4">
<path d="M425.661 125.139L387.334 103.077L425.661 81.0156L463.987 103.077L425.661 125.139ZM390.042 103.077L425.661 123.575L461.279 103.077L425.661 82.5792L390.042 103.077Z" fill="white"/>
<path d="M351.704 125.139L351.361 124.944L313.365 103.077L351.692 81.0156L352.035 81.2111L390.031 103.077L351.704 125.139ZM316.085 103.077L351.704 123.575L387.323 103.077L351.704 82.5792L316.085 103.077Z" fill="white"/>
<path d="M388.682 146.42L350.355 124.359L388.682 102.297L427.009 124.359L388.682 146.42ZM353.063 124.359L388.682 144.857L424.301 124.359L388.682 103.86L353.063 124.359Z" fill="white"/>
<path d="M425.661 167.698L425.318 167.502L387.322 145.636L425.649 123.574L425.992 123.77L463.988 145.636L425.661 167.698ZM390.042 145.636L425.661 166.134L461.28 145.636L425.661 125.138L390.042 145.636Z" fill="white"/>
<path d="M277.759 125.139L277.416 124.944L239.42 103.077L277.747 81.0156L278.09 81.2111L316.085 103.077L277.759 125.139ZM242.14 103.077L277.759 123.575L313.378 103.077L277.759 82.5792L242.14 103.077Z" fill="white"/>
<path d="M314.737 146.42L314.394 146.225L276.398 124.359L314.725 102.297L315.068 102.492L353.064 124.359L314.737 146.42ZM279.119 124.359L314.737 144.857L350.356 124.359L314.737 103.86L279.119 124.359Z" fill="white"/>
<path d="M351.704 167.698L351.361 167.502L313.365 145.636L351.692 123.574L390.019 145.636L351.692 167.698H351.704ZM316.085 145.636L351.704 166.134L387.323 145.636L351.704 125.138L316.085 145.636Z" fill="white"/>
<path d="M388.682 188.979L350.355 166.917L388.682 144.855L389.025 145.051L427.021 166.917L388.694 188.979H388.682ZM353.063 166.917L388.682 187.415L424.301 166.917L388.682 146.419L353.063 166.917Z" fill="white"/>
<path d="M425.661 210.272L387.322 188.21L425.649 166.148L425.992 166.344L463.988 188.21L425.661 210.272ZM390.042 188.21L425.661 208.708L461.28 188.21L425.661 167.712L390.042 188.21Z" fill="white"/>
<path d="M203.8 125.127L203.457 124.932L165.461 103.066L203.788 81.0039L242.127 103.066L203.8 125.127ZM168.181 103.066L203.8 123.564L239.419 103.066L203.8 82.5675L168.181 103.066Z" fill="white"/>
<path d="M240.78 146.42L202.441 124.359L240.768 102.297L241.111 102.492L279.107 124.359L240.78 146.42ZM205.162 124.359L240.78 144.857L276.399 124.359L240.78 103.86L205.162 124.359Z" fill="white"/>
<path d="M277.759 167.698L277.416 167.502L239.42 145.636L277.747 123.574L278.09 123.77L316.085 145.636L277.759 167.698ZM242.14 145.636L277.759 166.134L313.378 145.636L277.759 125.138L242.14 145.636Z" fill="white"/>
<path d="M314.737 188.979L314.394 188.783L276.398 166.917L314.725 144.855L315.068 145.051L353.064 166.917L314.737 188.979ZM279.119 166.917L314.737 187.415L350.356 166.917L314.737 146.419L279.119 166.917Z" fill="white"/>
<path d="M351.704 210.272L313.377 188.21L351.704 166.148L390.03 188.21L351.704 210.272ZM316.085 188.21L351.704 208.708L387.322 188.21L351.704 167.712L316.085 188.21Z" fill="white"/>
<path d="M388.683 231.553L388.34 231.358L350.344 209.491L388.67 187.43L427.009 209.491L388.683 231.553ZM353.064 209.491L388.683 229.99L424.301 209.491L388.683 188.993L353.064 209.491Z" fill="white"/>
<path d="M425.661 252.83L387.322 230.769L425.649 208.707L425.992 208.902L463.988 230.769L425.661 252.83ZM390.042 230.769L425.661 251.267L461.28 230.769L425.661 210.271L390.042 230.769Z" fill="white"/>
<path d="M129.855 125.127L129.511 124.932L91.5156 103.066L129.842 81.0039L130.185 81.1994L168.181 103.066L129.855 125.127ZM94.2357 103.066L129.855 123.564L165.473 103.066L129.855 82.5675L94.2357 103.066Z" fill="white"/>
<path d="M166.835 146.42L166.492 146.225L128.496 124.359L166.823 102.297L167.166 102.492L205.162 124.359L166.835 146.42ZM131.216 124.359L166.835 144.857L202.454 124.359L166.835 103.86L131.216 124.359Z" fill="white"/>
<path d="M203.8 167.698L203.457 167.502L165.461 145.636L203.788 123.574L242.127 145.636L203.8 167.698ZM168.181 145.636L203.8 166.134L239.419 145.636L203.8 125.138L168.181 145.636Z" fill="white"/>
<path d="M240.78 188.979L240.437 188.783L202.441 166.917L240.768 144.855L241.111 145.051L279.107 166.917L240.78 188.979ZM205.162 166.917L240.78 187.415L276.399 166.917L240.78 146.419L205.162 166.917Z" fill="white"/>
<path d="M277.759 210.272L239.42 188.21L277.747 166.148L278.09 166.344L316.085 188.21L277.759 210.272ZM242.14 188.21L277.759 208.708L313.378 188.21L277.759 167.712L242.14 188.21Z" fill="white"/>
<path d="M314.737 231.553L276.41 209.491L314.737 187.43L353.063 209.491L314.737 231.553ZM279.118 209.491L314.737 229.99L350.356 209.491L314.737 188.993L279.118 209.491Z" fill="white"/>
<path d="M351.704 252.83L351.361 252.635L313.365 230.769L351.692 208.707L352.035 208.902L390.031 230.769L351.704 252.83ZM316.085 230.769L351.704 251.267L387.323 230.769L351.704 210.271L316.085 230.769Z" fill="white"/>
<path d="M388.683 274.123L388.34 273.928L350.344 252.062L388.67 230L427.009 252.062L388.683 274.123ZM353.064 252.062L388.683 272.56L424.301 252.062L388.683 231.564L353.064 252.062Z" fill="white"/>
<path d="M425.661 295.405L425.318 295.209L387.322 273.343L425.649 251.281L425.992 251.477L463.988 273.343L425.661 295.405ZM390.042 273.343L425.661 293.841L461.28 273.343L425.661 252.845L390.042 273.343Z" fill="white"/>
<path d="M55.8975 125.127L55.5544 124.932L17.5586 103.066L55.8852 81.0039L94.2242 103.066L55.8975 125.127ZM20.2787 103.066L55.8975 123.564L91.5163 103.066L55.8975 82.5675L20.2787 103.066Z" fill="white"/>
<path d="M92.876 146.42L92.5329 146.225L54.5371 124.359L92.8638 102.297L93.2068 102.492L131.203 124.359L92.876 146.42ZM57.2572 124.359L92.876 144.857L128.495 124.359L92.876 103.86L57.2572 124.359Z" fill="white"/>
<path d="M129.855 167.698L91.5156 145.636L129.842 123.574L130.185 123.77L168.181 145.636L129.855 167.698ZM94.2357 145.636L129.855 166.134L165.473 145.636L129.855 125.138L94.2357 145.636Z" fill="white"/>
<path d="M166.835 188.979L166.492 188.783L128.496 166.917L166.823 144.855L167.166 145.051L205.162 166.917L166.835 188.979ZM131.216 166.917L166.835 187.415L202.454 166.917L166.835 146.419L131.216 166.917Z" fill="white"/>
<path d="M203.8 210.272L203.457 210.076L165.461 188.21L203.788 166.148L204.131 166.344L242.127 188.21L203.8 210.272ZM168.181 188.21L203.8 208.708L239.419 188.21L203.8 167.712L168.181 188.21Z" fill="white"/>
<path d="M240.78 231.553L240.437 231.358L202.441 209.491L240.768 187.43L279.107 209.491L240.78 231.553ZM205.162 209.491L240.78 229.99L276.399 209.491L240.78 188.993L205.162 209.491Z" fill="white"/>
<path d="M277.759 252.83L277.416 252.635L239.42 230.769L277.747 208.707L316.073 230.769L277.747 252.83H277.759ZM242.14 230.769L277.759 251.267L313.378 230.769L277.759 210.271L242.14 230.769Z" fill="white"/>
<path d="M314.737 274.123L276.41 252.062L314.737 230L315.08 230.195L353.076 252.062L314.749 274.123H314.737ZM279.118 252.062L314.737 272.56L350.356 252.062L314.737 231.564L279.118 252.062Z" fill="white"/>
<path d="M351.704 295.405L351.361 295.209L313.365 273.343L351.692 251.281L352.035 251.477L390.031 273.343L351.704 295.405ZM316.085 273.343L351.704 293.841L387.323 273.343L351.704 252.845L316.085 273.343Z" fill="white"/>
<path d="M388.683 316.682L388.34 316.487L350.344 294.62L388.67 272.559L389.013 272.754L427.009 294.62L388.683 316.682ZM353.064 294.62L388.683 315.118L424.301 294.62L388.683 274.122L353.064 294.62Z" fill="white"/>
<path d="M425.661 337.963L425.318 337.768L387.322 315.902L425.649 293.84L463.988 315.902L425.661 337.963ZM390.042 315.902L425.661 336.4L461.28 315.902L425.661 295.403L390.042 315.902Z" fill="white"/>
<path d="M55.8975 167.698L55.5544 167.502L17.5586 145.636L55.8852 123.574L56.2283 123.77L94.2242 145.636L55.8975 167.698ZM20.2787 145.636L55.8975 166.134L91.5163 145.636L55.8975 125.138L20.2787 145.636Z" fill="white"/>
<path d="M92.876 188.979L92.5329 188.783L54.5371 166.917L92.8638 144.855L131.203 166.917L92.876 188.979ZM57.2572 166.917L92.876 187.415L128.495 166.917L92.876 146.419L57.2572 166.917Z" fill="white"/>
<path d="M129.855 210.272L91.5156 188.21L129.842 166.148L130.185 166.344L168.181 188.21L129.855 210.272ZM94.2357 188.21L129.855 208.708L165.473 188.21L129.855 167.712L94.2357 188.21Z" fill="white"/>
<path d="M166.835 231.553L166.492 231.358L128.496 209.491L166.823 187.43L167.166 187.625L205.162 209.491L166.835 231.553ZM131.216 209.491L166.835 229.99L202.454 209.491L166.835 188.993L131.216 209.491Z" fill="white"/>
<path d="M203.814 252.83L203.47 252.635L165.475 230.769L203.801 208.707L204.144 208.902L242.14 230.769L203.814 252.83ZM168.195 230.769L203.814 251.267L239.432 230.769L203.814 210.271L168.195 230.769Z" fill="white"/>
<path d="M240.78 274.112L240.437 273.916L202.441 252.05L240.768 229.988L241.111 230.184L279.107 252.05L240.78 274.112ZM205.162 252.05L240.78 272.548L276.399 252.05L240.78 231.552L205.162 252.05Z" fill="white"/>
<path d="M277.758 295.405L239.432 273.343L277.758 251.281L316.085 273.343L277.758 295.405ZM242.139 273.343L277.758 293.841L313.377 273.343L277.758 252.845L242.139 273.343Z" fill="white"/>
<path d="M314.737 316.682L276.398 294.62L314.725 272.559L315.068 272.754L353.064 294.62L314.737 316.682ZM279.119 294.62L314.737 315.118L350.356 294.62L314.737 274.122L279.119 294.62Z" fill="white"/>
<path d="M351.716 337.963L351.373 337.768L313.377 315.902L351.704 293.84L352.047 294.035L390.043 315.902L351.716 337.963ZM316.097 315.902L351.716 336.4L387.335 315.902L351.716 295.403L316.097 315.902Z" fill="white"/>
<path d="M388.683 359.256L388.34 359.061L350.344 337.195L388.67 315.133L389.013 315.328L427.009 337.195L388.683 359.256ZM353.064 337.195L388.683 357.693L424.301 337.195L388.683 316.696L353.064 337.195Z" fill="white"/>
<path d="M425.661 380.534L425.318 380.338L387.322 358.472L425.649 336.41L425.992 336.606L463.988 358.472L425.661 380.534ZM390.042 358.472L425.661 378.97L461.28 358.472L425.661 337.974L390.042 358.472Z" fill="white"/>
<path d="M55.9092 210.272L55.5661 210.076L17.5703 188.21L55.897 166.148L56.24 166.344L94.2359 188.21L55.9092 210.272ZM20.2904 188.21L55.9092 208.708L91.528 188.21L55.9092 167.712L20.2904 188.21Z" fill="white"/>
<path d="M92.876 231.553L92.5329 231.358L54.5371 209.491L92.8638 187.43L131.203 209.491L92.876 231.553ZM57.2572 209.491L92.876 229.99L128.495 209.491L92.876 188.993L57.2572 209.491Z" fill="white"/>
<path d="M129.855 252.83L129.511 252.635L91.5156 230.769L129.842 208.707L130.185 208.902L168.181 230.769L129.855 252.83ZM94.2357 230.769L129.855 251.267L165.473 230.769L129.855 210.271L94.2357 230.769Z" fill="white"/>
<path d="M166.835 274.112L128.496 252.05L166.823 229.988L167.166 230.184L205.162 252.05L166.835 274.112ZM131.216 252.05L166.835 272.548L202.454 252.05L166.835 231.552L131.216 252.05Z" fill="white"/>
<path d="M203.814 295.405L203.47 295.209L165.475 273.343L203.801 251.281L204.144 251.477L242.14 273.343L203.814 295.405ZM168.195 273.343L203.814 293.841L239.432 273.343L203.814 252.845L168.195 273.343Z" fill="white"/>
<path d="M240.78 316.682L202.453 294.62L240.78 272.559L279.106 294.62L240.78 316.682ZM205.161 294.62L240.78 315.118L276.399 294.62L240.78 274.122L205.161 294.62Z" fill="white"/>
<path d="M277.759 337.963L277.416 337.768L239.42 315.902L277.747 293.84L316.085 315.902L277.759 337.963ZM242.14 315.902L277.759 336.4L313.378 315.902L277.759 295.403L242.14 315.902Z" fill="white"/>
<path d="M314.737 359.256L314.394 359.061L276.398 337.195L314.725 315.133L315.068 315.328L353.064 337.195L314.737 359.256ZM279.119 337.195L314.737 357.693L350.356 337.195L314.737 316.696L279.119 337.195Z" fill="white"/>
<path d="M351.716 380.534L313.377 358.472L351.704 336.41L352.047 336.606L390.043 358.472L351.716 380.534ZM316.097 358.472L351.716 378.97L387.335 358.472L351.716 337.974L316.097 358.472Z" fill="white"/>
<path d="M55.9092 252.83L55.5661 252.635L17.5703 230.769L55.897 208.707L56.24 208.902L94.2359 230.769L55.9092 252.83ZM20.2904 230.769L55.9092 251.267L91.528 230.769L55.9092 210.271L20.2904 230.769Z" fill="white"/>
<path d="M92.876 274.112L92.5329 273.916L54.5371 252.05L92.8638 229.988L93.2068 230.184L131.203 252.05L92.876 274.112ZM57.2572 252.05L92.876 272.548L128.495 252.05L92.876 231.552L57.2572 252.05Z" fill="white"/>
<path d="M129.855 295.405L129.511 295.209L91.5156 273.343L129.842 251.281L168.181 273.343L129.855 295.405ZM94.2357 273.343L129.855 293.841L165.473 273.343L129.855 252.845L94.2357 273.343Z" fill="white"/>
<path d="M166.835 316.682L128.496 294.62L166.823 272.559L167.166 272.754L205.162 294.62L166.835 316.682ZM131.216 294.62L166.835 315.118L202.454 294.62L166.835 274.122L131.216 294.62Z" fill="white"/>
<path d="M203.814 337.963L203.47 337.768L165.475 315.902L203.801 293.84L242.128 315.902L203.801 337.963H203.814ZM168.195 315.902L203.814 336.4L239.432 315.902L203.814 295.403L168.195 315.902Z" fill="white"/>
<path d="M240.78 359.256L202.453 337.195L240.78 315.133L241.123 315.328L279.119 337.195L240.792 359.256H240.78ZM205.161 337.195L240.78 357.693L276.399 337.195L240.78 316.696L205.161 337.195Z" fill="white"/>
<path d="M277.759 380.534L277.416 380.338L239.42 358.472L277.747 336.41L278.09 336.606L316.085 358.472L277.759 380.534ZM242.14 358.472L277.759 378.97L313.378 358.472L277.759 337.974L242.14 358.472Z" fill="white"/>
<path d="M55.9092 295.405L55.5661 295.209L17.5703 273.343L55.897 251.281L56.24 251.477L94.2359 273.343L55.9092 295.405ZM20.2904 273.343L55.9092 293.841L91.528 273.343L55.9092 252.845L20.2904 273.343Z" fill="white"/>
<path d="M92.8877 316.682L92.5447 316.487L54.5488 294.62L92.8755 272.559L93.2186 272.754L131.214 294.62L92.8877 316.682ZM57.2689 294.62L92.8877 315.118L128.507 294.62L92.8877 274.122L57.2689 294.62Z" fill="white"/>
<path d="M129.855 337.963L129.511 337.768L91.5156 315.902L129.842 293.84L168.181 315.902L129.855 337.963ZM94.2357 315.902L129.855 336.4L165.473 315.902L129.855 295.403L94.2357 315.902Z" fill="white"/>
<path d="M166.835 359.256L166.492 359.061L128.496 337.195L166.823 315.133L167.166 315.328L205.162 337.195L166.835 359.256ZM131.216 337.195L166.835 357.693L202.454 337.195L166.835 316.696L131.216 337.195Z" fill="white"/>
<path d="M203.813 380.534L165.486 358.472L203.813 336.41L242.14 358.472L203.813 380.534ZM168.194 358.472L203.813 378.97L239.432 358.472L203.813 337.974L168.194 358.472Z" fill="white"/>
<path d="M55.9092 337.963L17.5703 315.902L55.897 293.84L56.24 294.035L94.2359 315.902L55.9092 337.963ZM20.2904 315.902L55.9092 336.4L91.528 315.902L55.9092 295.403L20.2904 315.902Z" fill="white"/>
<path d="M92.8877 359.256L92.5447 359.061L54.5488 337.195L92.8755 315.133L93.2186 315.328L131.214 337.195L92.8877 359.256ZM57.2689 337.195L92.8877 357.693L128.507 337.195L92.8877 316.696L57.2689 337.195Z" fill="white"/>
<path d="M129.855 380.534L129.511 380.338L91.5156 358.472L129.842 336.41L130.185 336.606L168.181 358.472L129.855 380.534ZM94.2357 358.472L129.855 378.97L165.473 358.472L129.855 337.974L94.2357 358.472Z" fill="white"/>
<path d="M55.9092 380.534L17.5703 358.472L55.897 336.41L56.24 336.606L94.2359 358.472L55.9092 380.534ZM20.2904 358.472L55.9092 378.97L91.528 358.472L55.9092 337.974L20.2904 358.472Z" fill="white"/>
</g>
<path d="M312.14 330.143C312.14 332.488 310.486 335.335 308.452 336.507C306.418 337.68 304.764 336.727 304.764 334.382C304.764 332.037 306.418 329.19 308.452 328.017C310.486 326.845 312.14 327.798 312.14 330.143Z" fill="white"/>
<path d="M324.087 323.264C324.087 325.61 322.433 328.456 320.399 329.629C318.365 330.801 316.711 329.848 316.711 327.503C316.711 325.158 318.365 322.311 320.399 321.139C322.433 319.966 324.087 320.919 324.087 323.264Z" fill="white"/>
<path d="M336.032 316.389C336.032 318.735 334.378 321.581 332.344 322.754C330.31 323.926 328.656 322.973 328.656 320.628C328.656 318.283 330.31 315.436 332.344 314.264C334.378 313.091 336.032 314.044 336.032 316.389Z" fill="white"/>
<path d="M347.98 309.51C347.98 311.856 346.326 314.702 344.292 315.875C342.258 317.047 340.604 316.095 340.604 313.749C340.604 311.404 342.258 308.557 344.292 307.385C346.326 306.212 347.98 307.165 347.98 309.51Z" fill="white"/>
<path d="M6.45721 240.736L0 244.45V237.01L6.45721 233.297V240.736Z" fill="white"/>
<path d="M16.9324 234.705L10.4629 238.43V230.991L16.9324 227.277V234.705Z" fill="white"/>
<path d="M27.3967 228.682L20.9395 232.395V224.968L27.3967 221.242V228.682Z" fill="white"/>
<path d="M37.8615 222.658L31.4043 226.372V218.932L37.8615 215.219V222.658Z" fill="white"/>
<path d="M117.075 326.54L109.699 330.791V322.301L117.075 318.062V326.54Z" fill="white"/>
<path d="M127.306 320.579L119.93 324.83V316.34L127.306 312.102V320.579Z" fill="white"/>
<path d="M117.137 337.56L109.773 341.799V333.309L117.137 329.07V337.56Z" fill="white"/>
<path d="M127.306 331.709L119.93 335.948V327.458L127.306 323.219V331.709Z" fill="white"/>
<path opacity="0.5" d="M196.351 337.522C195.248 338.157 194.207 339.074 193.288 340.136C193.141 334.126 188.816 331.72 183.498 334.786C181.795 335.763 180.19 337.192 178.793 338.878C176.416 334.749 171.515 333.784 165.817 337.058C157.816 341.663 151.322 352.877 151.322 362.088C151.322 362.846 151.383 363.554 151.469 364.238C150.33 363.945 148.933 364.177 147.414 365.057C143.578 367.255 140.479 372.618 140.479 377.028C140.479 381.438 143.578 383.222 147.414 381.023L196.363 352.853C200.051 350.727 203.029 345.572 203.029 341.334C203.029 337.095 200.039 335.372 196.363 337.498L196.351 337.522Z" fill="white"/>
<path d="M431.31 206.078L403.631 190.136L431.31 174.207L458.989 190.136L431.31 206.078Z" fill="#7DC3EA"/>
<path d="M431.31 196.209C430.942 196.209 430.587 196.111 430.256 195.928L402.577 179.998C401.928 179.62 401.523 178.935 401.523 178.178C401.523 177.421 401.928 176.737 402.577 176.358L430.256 160.429C430.906 160.05 431.714 160.05 432.364 160.429L460.043 176.358C460.692 176.737 461.096 177.421 461.096 178.178C461.096 178.935 460.692 179.62 460.043 179.998L432.364 195.928C432.033 196.111 431.677 196.209 431.31 196.209ZM407.834 178.178L431.31 191.689L454.786 178.178L431.31 164.667L407.834 178.178Z" fill="white"/>
<path d="M458.99 165.73L431.311 181.66V149.801L458.99 133.859V165.73Z" fill="url(#paint0_radial_3002_25250)"/>
<path d="M431.31 149.801L403.631 133.859L431.31 117.93L458.989 133.871L431.31 149.801Z" fill="url(#paint1_linear_3002_25250)"/>
<path d="M431.31 181.66L403.631 165.73V133.859L431.31 149.801V181.66Z" fill="url(#paint2_radial_3002_25250)"/>
<path d="M421.336 164.446L413.592 159.987V151.082L421.336 155.529V164.446Z" fill="white"/>
<path d="M46.0107 327.394L7.83112 305.417C5.49084 304.074 5.78491 301.716 8.49277 300.152L45.3613 278.933C48.0692 277.37 52.1616 277.211 54.5019 278.555L92.6815 300.531C95.0218 301.875 94.7277 304.232 92.0199 305.796L55.1513 327.015C52.4434 328.578 48.351 328.737 46.0107 327.394Z" fill="#7DC3EA"/>
<path d="M49.9923 318.45C48.1298 318.45 46.3287 318.047 44.9196 317.24L6.72774 295.264C5.03686 294.287 4.05664 292.772 4.05664 291.111C4.05664 289.242 5.26966 287.483 7.37714 286.261L44.2457 265.042C47.652 263.076 52.5163 262.917 55.555 264.664L93.7346 286.64C95.4255 287.617 96.4057 289.132 96.4057 290.793C96.4057 292.662 95.1927 294.434 93.0853 295.643L56.2167 316.862C54.391 317.912 52.1365 318.45 49.98 318.45H49.9923ZM47.0884 313.49C48.7792 314.455 52.0385 314.284 54.0602 313.112L90.9288 291.88C91.86 291.343 92.0805 290.867 92.0805 290.769C92.0683 290.744 91.9457 290.561 91.5782 290.353L53.3985 268.377C51.7077 267.412 48.4607 267.583 46.4267 268.756L9.55813 289.975C8.62692 290.512 8.40637 290.989 8.40637 291.086C8.40637 291.111 8.54115 291.294 8.90874 291.502L47.0884 313.478V313.49Z" fill="white"/>
<path d="M94.2485 277.321V264.189H64.7071L54.5005 258.289C52.1602 256.945 48.0678 257.104 45.36 258.668L35.8273 264.153H6.24913V277.651C6.18786 278.567 6.69023 279.447 7.81748 280.094L45.9971 302.071C48.3374 303.414 52.4298 303.255 55.1377 301.692L92.0062 280.473C93.5623 279.569 94.322 278.409 94.2362 277.321H94.2485Z" fill="#396CAA"/>
<path d="M50.2488 257.387C48.5334 257.423 46.7568 257.863 45.3477 258.669L35.8151 264.154H6.24913V277.653C6.18786 278.569 6.69023 279.448 7.81748 280.096L45.9971 302.072C47.1244 302.72 48.656 303.013 50.2366 302.976V257.387H50.2488Z" fill="url(#paint3_radial_3002_25250)"/>
<path d="M9.59413 264.141H6.24913V277.651C6.18786 278.567 6.69023 279.447 7.81748 280.094L9.59413 281.121V264.153V264.141Z" fill="#D4ECFF"/>
<path d="M46.5977 302.35C48.6194 303.218 51.5478 303.169 53.9126 302.265V286.922H46.5977V302.338V302.35Z" fill="#5793CE"/>
<path d="M46.0107 288.608L7.83112 266.632C5.49084 265.288 5.78491 262.931 8.49277 261.367L45.3613 240.148C48.0692 238.585 52.1616 238.426 54.5019 239.77L92.6815 261.746C95.0218 263.09 94.7277 265.447 92.0199 267.011L55.1513 288.23C52.4434 289.793 48.351 289.952 46.0107 288.608Z" fill="url(#paint4_linear_3002_25250)"/>
<path d="M92.0192 264.423L55.1507 285.641C52.4428 287.205 48.3504 287.364 46.0101 286.02L7.83049 264.044C7.30362 263.738 6.92378 263.396 6.66647 263.006C5.85779 264.3 6.22537 265.693 7.83049 266.621L46.0101 288.598C48.3504 289.941 52.4428 289.783 55.1507 288.219L92.0192 267C94.1267 265.791 94.7638 264.105 93.8449 262.773C93.4773 263.36 92.8647 263.934 92.0192 264.423Z" fill="white"/>
<path d="M80.2068 280.793C80.2068 281.77 79.5207 282.968 78.663 283.456C77.8053 283.945 77.1191 283.554 77.1191 282.564C77.1191 281.575 77.8053 280.39 78.663 279.901C79.5207 279.413 80.2068 279.804 80.2068 280.793Z" fill="#D4ECFF"/>
<path d="M85.1697 277.934C85.1697 278.911 84.4836 280.108 83.6259 280.597C82.7682 281.086 82.082 280.695 82.082 279.705C82.082 278.716 82.7682 277.531 83.6259 277.042C84.4836 276.553 85.1697 276.944 85.1697 277.934Z" fill="#D4ECFF"/>
<path d="M90.1307 275.074C90.1307 276.052 89.4445 277.249 88.5868 277.738C87.7291 278.226 87.043 277.835 87.043 276.846C87.043 275.856 87.7291 274.671 88.5868 274.183C89.4445 273.694 90.1307 274.085 90.1307 275.074Z" fill="#D4ECFF"/>
<path d="M48.2645 274.975L30.4 264.689C29.2972 264.054 29.4443 262.955 30.7063 262.222L47.9582 252.29C49.2202 251.557 51.1439 251.484 52.2344 252.119L70.0989 262.405C71.2017 263.04 71.0546 264.139 69.7926 264.872L52.5407 274.804C51.2787 275.537 49.355 275.61 48.2645 274.975Z" fill="#5793CE"/>
<path d="M49.9792 266.361L47.5041 264.944C47.3571 264.859 47.3694 264.7 47.5409 264.602L49.9302 263.234C50.1017 263.136 50.3713 263.124 50.5183 263.21L52.9934 264.627C53.1404 264.712 53.1282 264.871 52.9566 264.969L50.5673 266.337C50.3958 266.434 50.1262 266.447 49.9792 266.361Z" fill="#D4ECFF"/>
<path d="M30.4 264.688L30.449 264.713C30.5348 264.652 30.6083 264.591 30.7063 264.542L47.9582 254.61C49.2202 253.877 51.1439 253.804 52.2344 254.439L70.0499 264.701C71.0546 263.98 71.1159 263.003 70.0989 262.416L52.2344 252.131C51.1317 251.495 49.2202 251.581 47.9582 252.302L30.7063 262.233C29.4443 262.966 29.2972 264.065 30.4 264.701V264.688Z" fill="#396CAA"/>
<path d="M110.997 146.126C110.274 146.541 109.576 147.067 108.914 147.653C108.62 138.283 101.832 134.558 93.4758 139.358C86.6755 143.28 80.9044 151.66 78.8337 159.881C77.1551 159.661 75.1824 160.089 73.0626 161.31C66.973 164.816 62.0352 173.343 62.0352 180.355C62.0352 187.366 66.973 190.213 73.0626 186.707L110.997 164.877C115.494 162.287 119.145 155.996 119.145 150.817C119.145 145.637 115.494 143.536 110.997 146.126Z" fill="white"/>
<path d="M428.859 13.4366C427.597 14.1574 426.409 15.2079 425.367 16.4295C425.208 9.56424 420.258 6.81569 414.168 10.3216C412.22 11.4455 410.382 13.0702 408.789 15.0003C406.082 10.2728 400.47 9.18555 393.964 12.9236C384.811 18.1886 377.398 31.003 377.398 41.533C377.398 42.4003 377.471 43.2187 377.569 44.0006C376.258 43.6585 374.665 43.9395 372.926 44.929C368.551 47.4454 364.998 53.5777 364.998 58.6106C364.998 63.6435 368.551 65.6958 372.926 63.1671L428.859 30.9663C433.074 28.5476 436.481 22.6474 436.481 17.8099C436.481 12.9724 433.074 11.0057 428.859 13.4244V13.4366Z" fill="white"/>
<path d="M390.275 249.849C389.98 249.849 389.686 249.776 389.417 249.642C388.51 249.165 388.155 248.054 388.633 247.137C390.52 243.534 393.289 240.504 396.229 238.806C398.08 237.743 399.881 237.255 401.584 237.328C401.657 237.328 401.731 237.328 401.804 237.328C404.157 237.328 407.036 235.545 409.56 232.515C411.043 230.732 412.673 229.327 414.388 228.337C416.238 227.274 418.039 226.786 419.742 226.859C422.095 227.006 425.121 225.186 427.731 222.058C429.189 220.311 430.856 218.858 432.559 217.881C434.409 216.818 436.186 216.317 437.913 216.402C440.254 216.561 443.292 214.729 445.89 211.602C447.372 209.818 449.002 208.413 450.717 207.424C453.45 205.86 456.158 205.518 458.375 206.471C459.319 206.886 459.748 207.974 459.343 208.914C458.927 209.855 457.836 210.282 456.893 209.879C455.79 209.403 454.258 209.671 452.58 210.637C451.257 211.394 449.933 212.554 448.757 213.971C445.363 218.052 441.307 220.263 437.729 220.116C436.762 220.055 435.622 220.409 434.421 221.093C433.098 221.851 431.775 223.011 430.598 224.428C427.204 228.508 423.198 230.719 419.571 230.573C418.615 230.512 417.463 230.866 416.263 231.562C414.939 232.32 413.616 233.48 412.44 234.897C409.046 238.977 404.99 241.2 401.412 241.042C400.432 240.981 399.305 241.335 398.104 242.019C395.764 243.363 393.522 245.855 391.941 248.848C391.61 249.483 390.961 249.837 390.287 249.837L390.275 249.849Z" fill="white"/>
<path d="M238.329 342.52L86.1011 254.896C81.8004 252.416 82.3395 248.092 87.3019 245.221L190.96 185.571C195.935 182.713 203.458 182.395 207.759 184.875L359.987 272.499C364.288 274.979 363.749 279.303 358.786 282.174L255.128 341.823C250.153 344.682 242.63 344.999 238.329 342.52Z" fill="#7DC3EA"/>
<path d="M245.644 329.206C242.593 329.206 239.665 328.571 237.435 327.288L85.2066 239.664C82.756 238.259 81.4082 236.219 81.4082 233.923C81.4082 231.296 83.2339 228.743 86.4196 226.911L190.078 167.261C195.628 164.061 203.789 163.767 208.665 166.565L360.894 254.189C363.344 255.593 364.692 257.634 364.692 259.93C364.692 262.556 362.866 265.11 359.681 266.942L256.022 326.592C253.02 328.326 249.247 329.206 245.644 329.206ZM239.224 324.21C242.961 326.36 249.847 326.042 254.246 323.513L357.904 263.864C359.926 262.703 361.127 261.237 361.127 259.93C361.127 258.623 360.036 257.805 359.117 257.267L206.889 169.643C203.139 167.493 196.266 167.811 191.867 170.339L88.2085 229.989C86.1868 231.15 84.986 232.616 84.986 233.923C84.986 235.23 86.0765 236.048 86.9955 236.586L239.224 324.21Z" fill="white"/>
<path d="M397.75 88.5656L245.522 0.941732C243.757 -0.0721782 241.956 -0.230984 240.363 0.306511L240.081 0.392022C240.057 0.392022 240.032 0.404238 240.008 0.416453L234.506 2.51757L239.444 4.92408C239.42 5.00959 239.395 5.0951 239.371 5.19283L212.476 127.155C211.238 132.787 213.726 139.359 218.026 141.839L366.604 227.361L366.077 233.64L372.093 231.319C374.114 230.379 375.732 228.253 376.393 225.211L403.288 103.249C404.526 97.6175 402.038 91.0454 397.738 88.5656H397.75Z" fill="#01C5EE"/>
<path d="M397.751 88.5656L245.523 0.941732C243.759 -0.0721782 241.957 -0.230984 240.365 0.306511L240.083 0.392022C240.058 0.392022 240.034 0.404238 240.009 0.416453L234.508 2.51757L239.446 4.92408C239.421 5.00959 239.397 5.0951 239.372 5.19283L220.932 88.7855L295.416 146.639L402.542 94.6124C401.537 91.9982 399.859 89.7872 397.739 88.5656H397.751Z" fill="#396CAA"/>
<path d="M392.016 105.862L403.607 100.939C403.816 96.4685 401.966 91.8387 398.915 89.3711L380.572 97.067L392.016 105.862Z" fill="#01A2F3"/>
<path d="M360.796 233.044L208.567 145.42C204.267 142.94 201.779 136.368 203.017 130.736L229.912 8.7738C231.149 3.14232 235.646 0.58922 239.959 3.06903L392.187 90.6929C396.488 93.1727 398.975 99.7448 397.738 105.376L370.843 227.339C369.606 232.97 365.109 235.523 360.796 233.044Z" fill="url(#paint5_radial_3002_25250)"/>
<path d="M393.658 90.1544L241.417 2.53048C239.334 1.33333 237.202 1.33333 235.426 2.27394C236.859 1.95633 238.415 2.17622 239.959 3.06797L392.188 90.6918C396.488 93.1716 398.976 99.7437 397.738 105.375L370.843 227.325C370.206 230.233 368.687 232.297 366.788 233.299C369.361 232.737 371.505 230.416 372.301 226.8L399.196 104.85C400.434 99.2185 397.946 92.6464 393.646 90.1666L393.658 90.1544Z" fill="white"/>
<path d="M357.501 224.676L214.327 142.305C210.382 140.032 208.115 134.022 209.242 128.867L234.03 16.4697C235.169 11.3146 239.286 8.98138 243.219 11.2413L386.393 93.6124C390.338 95.8845 392.605 101.895 391.478 107.05L366.69 219.447C365.551 224.602 361.434 226.936 357.501 224.676Z" fill="white"/>
<path d="M357.501 224.676L214.327 142.305C210.382 140.032 208.115 134.022 209.242 128.867L234.03 16.4697C235.169 11.3146 239.286 8.98138 243.219 11.2413L386.393 93.6124C390.338 95.8845 392.605 101.895 391.478 107.05L366.69 219.447C365.551 224.602 361.434 226.936 357.501 224.676Z" fill="url(#paint6_radial_3002_25250)"/>
<path d="M358.751 224.161L215.577 141.79C211.632 139.518 209.365 133.508 210.493 128.353L235.28 15.9551C235.856 13.3531 237.191 11.4719 238.882 10.5312C236.615 11.1176 234.741 13.2309 234.03 16.4559L209.243 128.853C208.103 134.008 210.382 140.019 214.328 142.291L357.501 224.662C359.449 225.786 361.434 225.773 363.088 224.857C361.728 225.212 360.234 225.004 358.751 224.149V224.161Z" fill="#5793CE"/>
<path d="M362.905 236.851L342.1 234.115L207.773 156.789C203.472 154.309 195.949 154.627 190.974 157.485L95.7945 212.249L83.2109 210.587V217.709H83.2232C83.1374 219.358 84.0809 220.934 86.1148 222.107L238.343 309.731C242.644 312.21 250.167 311.893 255.142 309.034L358.8 249.385C361.594 247.772 362.991 245.695 362.905 243.753V236.839V236.851Z" fill="#01C5EE"/>
<path d="M261.977 188.001L252.432 182.504H147.512L95.7809 212.262L83.1973 210.6V217.722H83.2095C83.1238 219.371 84.0672 220.947 86.1012 222.12L238.33 309.744C240.609 311.051 243.782 311.576 247.005 311.368L261.977 188.001Z" fill="#396CAA"/>
<path d="M88.7845 211.335L83.1973 210.602V217.723H83.2095C83.1238 219.373 84.0672 220.948 86.1012 222.121L88.7845 223.66V211.335Z" fill="#5793CE"/>
<path d="M239.861 310.451C243.941 311.991 249.774 311.661 254.136 309.572V293.691H239.861V310.451Z" fill="#01A2F3"/>
<path d="M238.329 302.637L86.1011 215.013C81.8004 212.533 82.3395 208.209 87.3019 205.338L190.96 145.688C195.935 142.83 203.458 142.512 207.759 144.992L359.987 232.616C364.288 235.096 363.749 239.42 358.786 242.291L255.128 301.941C250.153 304.799 242.63 305.117 238.329 302.637Z" fill="url(#paint7_radial_3002_25250)"/>
<path d="M358.787 239.697L255.129 299.347C250.154 302.206 242.631 302.523 238.33 300.043L86.1018 212.42C84.6928 211.601 83.8106 210.599 83.4185 209.5C82.7446 211.528 83.6023 213.58 86.1018 215.022L238.33 302.645C242.631 305.125 250.154 304.808 255.129 301.949L358.787 242.299C362.132 240.369 363.455 237.792 362.671 235.544C362.181 237.022 360.882 238.488 358.787 239.697Z" fill="white"/>
<path d="M150.846 185.997L143.96 182.027C143.409 181.709 143.482 181.147 144.119 180.781L152.255 176.102C152.892 175.736 153.86 175.699 154.412 176.017L161.298 179.987C161.849 180.304 161.776 180.866 161.139 181.233L153.003 185.911C152.366 186.278 151.398 186.315 150.846 185.997Z" fill="#5793CE"/>
<path d="M161.481 192.118L154.595 188.148C154.044 187.83 154.117 187.268 154.754 186.902L162.89 182.223C163.527 181.857 164.495 181.82 165.047 182.138L171.933 186.108C172.484 186.425 172.41 186.987 171.773 187.354L163.637 192.032C163 192.399 162.032 192.436 161.481 192.118Z" fill="#5793CE"/>
<path d="M172.118 198.251L165.232 194.281C164.68 193.963 164.754 193.401 165.391 193.035L173.527 188.356C174.164 187.99 175.132 187.953 175.683 188.271L182.569 192.241C183.121 192.558 183.047 193.12 182.41 193.487L174.274 198.165C173.637 198.532 172.669 198.568 172.118 198.251Z" fill="#5793CE"/>
<path d="M186.833 193.193L179.946 189.223C179.395 188.905 179.469 188.343 180.106 187.977L186.931 184.044C187.568 183.677 188.536 183.64 189.087 183.958L195.973 187.928C196.524 188.246 196.451 188.808 195.814 189.174L188.989 193.108C188.352 193.474 187.384 193.511 186.833 193.193Z" fill="#5793CE"/>
<path d="M197.467 199.314L190.581 195.344C190.03 195.026 190.103 194.465 190.741 194.098L197.565 190.165C198.202 189.798 199.17 189.761 199.722 190.079L206.608 194.049C207.159 194.367 207.086 194.929 206.449 195.295L199.624 199.229C198.987 199.595 198.019 199.632 197.467 199.314Z" fill="#5793CE"/>
<path d="M208.104 205.431L201.218 201.461C200.667 201.144 200.74 200.582 201.377 200.215L208.202 196.282C208.839 195.915 209.807 195.879 210.359 196.196L217.245 200.166C217.796 200.484 217.722 201.046 217.085 201.412L210.261 205.346C209.623 205.712 208.655 205.749 208.104 205.431Z" fill="#5793CE"/>
<path d="M218.739 211.553L211.853 207.582C211.301 207.265 211.375 206.703 212.012 206.336L218.837 202.403C219.474 202.036 220.442 202 220.993 202.317L227.879 206.288C228.431 206.605 228.357 207.167 227.72 207.534L220.895 211.467C220.258 211.833 219.29 211.87 218.739 211.553Z" fill="#5793CE"/>
<path d="M229.374 217.685L222.488 213.715C221.936 213.398 222.01 212.836 222.647 212.469L229.472 208.536C230.109 208.169 231.077 208.133 231.628 208.45L238.514 212.42C239.065 212.738 238.992 213.3 238.355 213.666L231.53 217.6C230.893 217.966 229.925 218.003 229.374 217.685Z" fill="#5793CE"/>
<path d="M240.022 223.806L233.136 219.836C232.585 219.519 232.658 218.957 233.295 218.59L240.12 214.657C240.757 214.29 241.725 214.254 242.277 214.571L249.163 218.541C249.714 218.859 249.64 219.421 249.003 219.787L242.178 223.721C241.541 224.087 240.573 224.124 240.022 223.806Z" fill="#5793CE"/>
<path d="M250.657 229.924L243.771 225.953C243.219 225.636 243.293 225.074 243.93 224.707L250.755 220.774C251.392 220.408 252.36 220.371 252.911 220.688L259.797 224.659C260.349 224.976 260.275 225.538 259.638 225.905L252.813 229.838C252.176 230.205 251.208 230.241 250.657 229.924Z" fill="#5793CE"/>
<path d="M261.293 236.045L254.407 232.075C253.856 231.757 253.93 231.195 254.567 230.829L261.392 226.895C262.029 226.529 262.997 226.492 263.548 226.81L270.434 230.78C270.985 231.097 270.912 231.659 270.275 232.026L263.45 235.959C262.813 236.326 261.845 236.362 261.293 236.045Z" fill="#5793CE"/>
<path d="M271.928 242.178L265.042 238.207C264.491 237.89 264.564 237.328 265.201 236.961L272.026 233.028C272.663 232.661 273.631 232.625 274.183 232.942L281.069 236.913C281.62 237.23 281.547 237.792 280.91 238.159L274.085 242.092C273.448 242.458 272.48 242.495 271.928 242.178Z" fill="#5793CE"/>
<path d="M282.563 248.299L275.677 244.328C275.126 244.011 275.199 243.449 275.836 243.082L282.661 239.149C283.298 238.783 284.266 238.746 284.818 239.063L291.704 243.034C292.255 243.351 292.181 243.913 291.544 244.28L284.719 248.213C284.082 248.58 283.114 248.616 282.563 248.299Z" fill="#5793CE"/>
<path d="M202.504 190.287L195.618 186.317C195.067 185.999 195.141 185.437 195.778 185.071L202.602 181.137C203.24 180.771 204.208 180.734 204.759 181.052L211.645 185.022C212.196 185.34 212.123 185.901 211.486 186.268L204.661 190.201C204.024 190.568 203.056 190.605 202.504 190.287Z" fill="#5793CE"/>
<path d="M191.71 184.08L184.823 180.11C184.272 179.792 184.346 179.23 184.983 178.864L191.808 174.93C192.445 174.564 193.413 174.527 193.964 174.845L200.85 178.815C201.401 179.132 201.328 179.694 200.691 180.061L193.866 183.994C193.229 184.361 192.261 184.397 191.71 184.08Z" fill="#5793CE"/>
<path d="M180.89 177.848L166.052 169.309C165.501 168.991 165.574 168.429 166.211 168.063L173.036 164.129C173.673 163.763 174.641 163.726 175.193 164.044L190.031 172.583C190.582 172.9 190.508 173.462 189.871 173.829L183.047 177.762C182.409 178.129 181.441 178.165 180.89 177.848Z" fill="#5793CE"/>
<path d="M188.45 170.286L176.405 163.36C175.854 163.042 175.928 162.48 176.565 162.114L183.39 158.18C184.027 157.814 184.995 157.777 185.546 158.095L197.59 165.021C198.142 165.339 198.068 165.901 197.431 166.267L190.606 170.201C189.969 170.567 189.001 170.604 188.45 170.286Z" fill="#5793CE"/>
<path d="M213.139 196.416L206.253 192.446C205.702 192.128 205.775 191.566 206.412 191.2L213.237 187.266C213.874 186.9 214.842 186.863 215.394 187.181L222.28 191.151C222.831 191.468 222.758 192.03 222.12 192.397L215.296 196.33C214.659 196.697 213.691 196.733 213.139 196.416Z" fill="#5793CE"/>
<path d="M223.774 202.537L216.888 198.567C216.337 198.249 216.41 197.687 217.047 197.321L223.872 193.387C224.509 193.021 225.477 192.984 226.028 193.302L232.915 197.272C233.466 197.59 233.392 198.151 232.755 198.518L225.93 202.451C225.293 202.818 224.325 202.855 223.774 202.537Z" fill="#5793CE"/>
<path d="M234.411 208.658L227.525 204.688C226.973 204.37 227.047 203.808 227.684 203.442L234.509 199.508C235.146 199.142 236.114 199.105 236.665 199.423L243.551 203.393C244.103 203.711 244.029 204.273 243.392 204.639L236.567 208.572C235.93 208.939 234.962 208.976 234.411 208.658Z" fill="#5793CE"/>
<path d="M245.057 214.779L238.171 210.809C237.62 210.491 237.693 209.929 238.33 209.563L245.155 205.629C245.792 205.263 246.76 205.226 247.312 205.544L254.198 209.514C254.749 209.832 254.676 210.394 254.038 210.76L247.214 214.694C246.576 215.06 245.609 215.097 245.057 214.779Z" fill="#5793CE"/>
<path d="M255.694 220.912L248.808 216.942C248.256 216.624 248.33 216.062 248.967 215.696L255.792 211.762C256.429 211.396 257.397 211.359 257.948 211.677L264.834 215.647C265.386 215.964 265.312 216.526 264.675 216.893L257.85 220.826C257.213 221.193 256.245 221.229 255.694 220.912Z" fill="#5793CE"/>
<path d="M266.329 227.029L259.443 223.059C258.891 222.741 258.965 222.179 259.602 221.813L266.427 217.879C267.064 217.513 268.032 217.476 268.583 217.794L275.469 221.764C276.021 222.082 275.947 222.644 275.31 223.01L268.485 226.944C267.848 227.31 266.88 227.347 266.329 227.029Z" fill="#5793CE"/>
<path d="M276.963 233.15L270.077 229.18C269.526 228.862 269.599 228.301 270.237 227.934L277.061 224.001C277.699 223.634 278.667 223.597 279.218 223.915L286.104 227.885C286.655 228.203 286.582 228.765 285.945 229.131L279.12 233.065C278.483 233.431 277.515 233.468 276.963 233.15Z" fill="#5793CE"/>
<path d="M287.6 239.271L280.714 235.301C280.163 234.984 280.236 234.422 280.873 234.055L287.698 230.122C288.335 229.755 289.303 229.719 289.855 230.036L296.741 234.006C297.292 234.324 297.219 234.886 296.581 235.252L289.757 239.186C289.119 239.552 288.151 239.589 287.6 239.271Z" fill="#5793CE"/>
<path d="M298.235 245.392L291.349 241.422C290.797 241.105 290.871 240.543 291.508 240.176L298.333 236.243C298.97 235.876 299.938 235.84 300.489 236.157L307.375 240.127C307.927 240.445 307.853 241.007 307.216 241.373L300.391 245.307C299.754 245.673 298.786 245.71 298.235 245.392Z" fill="#5793CE"/>
<path d="M317.153 256.274L302.118 247.625C301.567 247.308 301.641 246.746 302.278 246.379L309.102 242.446C309.74 242.079 310.708 242.043 311.259 242.36L326.293 251.009C326.844 251.327 326.771 251.889 326.134 252.255L319.309 256.189C318.672 256.555 317.704 256.592 317.153 256.274Z" fill="#5793CE"/>
<path d="M337.861 244.364L325.179 237.059C324.628 236.741 324.701 236.179 325.338 235.813L332.163 231.879C332.8 231.513 333.768 231.476 334.319 231.794L347.001 239.099C347.552 239.417 347.479 239.979 346.842 240.345L340.017 244.278C339.38 244.645 338.412 244.682 337.861 244.364Z" fill="#5793CE"/>
<path d="M231.776 195.22L224.89 191.25C224.338 190.933 224.412 190.371 225.049 190.004L231.874 186.071C232.511 185.704 233.479 185.668 234.03 185.985L240.916 189.955C241.468 190.273 241.394 190.835 240.757 191.201L233.932 195.135C233.295 195.501 232.327 195.538 231.776 195.22Z" fill="#5793CE"/>
<path d="M220.872 188.943L213.986 184.973C213.434 184.655 213.508 184.093 214.145 183.727L220.97 179.794C221.607 179.427 222.575 179.39 223.126 179.708L230.012 183.678C230.564 183.996 230.49 184.558 229.853 184.924L223.028 188.858C222.391 189.224 221.423 189.261 220.872 188.943Z" fill="#5793CE"/>
<path d="M209.965 182.662L203.079 178.692C202.528 178.374 202.601 177.812 203.239 177.446L210.063 173.512C210.701 173.146 211.668 173.109 212.22 173.427L219.106 177.397C219.657 177.715 219.584 178.276 218.947 178.643L212.122 182.576C211.485 182.943 210.517 182.98 209.965 182.662Z" fill="#5793CE"/>
<path d="M199.061 176.396L192.175 172.426C191.624 172.109 191.697 171.547 192.334 171.18L199.159 167.247C199.796 166.88 200.764 166.844 201.316 167.161L208.202 171.131C208.753 171.449 208.679 172.011 208.042 172.377L201.218 176.311C200.58 176.677 199.612 176.714 199.061 176.396Z" fill="#5793CE"/>
<path d="M242.411 201.342L235.525 197.371C234.973 197.054 235.047 196.492 235.684 196.125L242.509 192.192C243.146 191.825 244.114 191.789 244.665 192.106L251.551 196.077C252.103 196.394 252.029 196.956 251.392 197.323L244.567 201.256C243.93 201.623 242.962 201.659 242.411 201.342Z" fill="#5793CE"/>
<path d="M253.047 207.459L246.161 203.489C245.61 203.171 245.683 202.609 246.321 202.243L253.145 198.309C253.783 197.943 254.751 197.906 255.302 198.224L262.188 202.194C262.739 202.511 262.666 203.073 262.029 203.44L255.204 207.373C254.567 207.74 253.599 207.776 253.047 207.459Z" fill="#5793CE"/>
<path d="M263.682 213.58L256.796 209.61C256.245 209.292 256.318 208.73 256.955 208.364L263.78 204.43C264.417 204.064 265.385 204.027 265.937 204.345L272.823 208.315C273.374 208.632 273.301 209.194 272.663 209.561L265.839 213.494C265.202 213.861 264.234 213.897 263.682 213.58Z" fill="#5793CE"/>
<path d="M274.317 219.701L267.431 215.731C266.879 215.413 266.953 214.851 267.59 214.485L274.415 210.551C275.052 210.185 276.02 210.148 276.571 210.466L283.457 214.436C284.009 214.754 283.935 215.315 283.298 215.682L276.473 219.615C275.836 219.982 274.868 220.019 274.317 219.701Z" fill="#5793CE"/>
<path d="M284.954 225.834L278.068 221.864C277.516 221.546 277.59 220.984 278.227 220.618L285.052 216.684C285.689 216.318 286.657 216.281 287.208 216.599L294.094 220.569C294.646 220.886 294.572 221.448 293.935 221.815L287.11 225.748C286.473 226.115 285.505 226.151 284.954 225.834Z" fill="#5793CE"/>
<path d="M295.588 231.955L288.702 227.985C288.151 227.667 288.224 227.105 288.862 226.739L295.686 222.805C296.324 222.439 297.292 222.402 297.843 222.72L304.729 226.69C305.28 227.007 305.207 227.569 304.57 227.936L297.745 231.869C297.108 232.236 296.14 232.272 295.588 231.955Z" fill="#5793CE"/>
<path d="M306.223 238.072L299.337 234.102C298.786 233.784 298.859 233.222 299.496 232.856L306.321 228.922C306.958 228.556 307.926 228.519 308.478 228.837L315.364 232.807C315.915 233.125 315.842 233.687 315.204 234.053L308.38 237.987C307.743 238.353 306.775 238.39 306.223 238.072Z" fill="#5793CE"/>
<path d="M316.872 244.193L309.986 240.223C309.434 239.905 309.508 239.343 310.145 238.977L316.97 235.044C317.607 234.677 318.575 234.64 319.126 234.958L326.012 238.928C326.564 239.246 326.49 239.808 325.853 240.174L319.028 244.108C318.391 244.474 317.423 244.511 316.872 244.193Z" fill="#5793CE"/>
<path d="M327.506 250.326L320.62 246.356C320.069 246.038 320.142 245.476 320.78 245.11L327.604 241.176C328.242 240.81 329.21 240.773 329.761 241.091L336.647 245.061C337.198 245.379 337.125 245.94 336.488 246.307L329.663 250.24C329.026 250.607 328.058 250.644 327.506 250.326Z" fill="#5793CE"/>
<path d="M226.165 180.072L219.279 176.102C218.727 175.784 218.801 175.222 219.438 174.856L226.263 170.922C226.9 170.556 227.868 170.519 228.419 170.837L235.305 174.807C235.857 175.125 235.783 175.687 235.146 176.053L228.321 179.987C227.684 180.353 226.716 180.39 226.165 180.072Z" fill="#5793CE"/>
<path d="M215.59 173.978L208.704 170.008C208.153 169.691 208.226 169.129 208.864 168.762L215.688 164.829C216.326 164.462 217.293 164.426 217.845 164.743L224.731 168.713C225.282 169.031 225.209 169.593 224.572 169.959L217.747 173.893C217.11 174.259 216.142 174.296 215.59 173.978Z" fill="#5793CE"/>
<path d="M205.004 167.881L198.118 163.911C197.567 163.593 197.641 163.031 198.278 162.665L205.102 158.731C205.74 158.365 206.708 158.328 207.259 158.646L214.145 162.616C214.696 162.933 214.623 163.495 213.986 163.862L207.161 167.795C206.524 168.162 205.556 168.198 205.004 167.881Z" fill="#5793CE"/>
<path d="M194.417 161.799L187.53 157.828C186.979 157.511 187.053 156.949 187.69 156.582L194.515 152.649C195.152 152.283 196.12 152.246 196.671 152.563L203.557 156.534C204.108 156.851 204.035 157.413 203.398 157.78L196.573 161.713C195.936 162.08 194.968 162.116 194.417 161.799Z" fill="#5793CE"/>
<path d="M205.297 155.531L198.411 151.561C197.86 151.243 197.933 150.681 198.571 150.315L200.825 149.02C201.462 148.654 202.43 148.617 202.982 148.935L209.868 152.905C210.419 153.222 210.346 153.784 209.708 154.151L207.454 155.446C206.817 155.812 205.849 155.849 205.297 155.531Z" fill="#5793CE"/>
<path d="M219.106 163.484L212.22 159.514C211.669 159.196 211.742 158.635 212.379 158.268L214.634 156.973C215.271 156.607 216.239 156.57 216.79 156.888L223.676 160.858C224.228 161.175 224.154 161.737 223.517 162.104L221.262 163.399C220.625 163.765 219.657 163.802 219.106 163.484Z" fill="#5793CE"/>
<path d="M229.657 169.543L222.771 165.573C222.219 165.255 222.293 164.693 222.93 164.327L225.185 163.032C225.822 162.665 226.79 162.629 227.341 162.946L234.227 166.916C234.778 167.234 234.705 167.796 234.068 168.162L231.813 169.457C231.176 169.824 230.208 169.86 229.657 169.543Z" fill="#5793CE"/>
<path d="M240.194 175.613L233.308 171.643C232.756 171.325 232.83 170.763 233.467 170.397L235.722 169.102C236.359 168.736 237.327 168.699 237.878 169.017L244.764 172.987C245.316 173.304 245.242 173.866 244.605 174.233L242.35 175.528C241.713 175.894 240.745 175.931 240.194 175.613Z" fill="#5793CE"/>
<path d="M250.731 181.683L243.845 177.713C243.294 177.396 243.367 176.834 244.004 176.467L246.259 175.172C246.896 174.806 247.864 174.769 248.415 175.087L255.301 179.057C255.853 179.375 255.779 179.937 255.142 180.303L252.887 181.598C252.25 181.964 251.282 182.001 250.731 181.683Z" fill="#5793CE"/>
<path d="M309.581 215.547L302.695 211.577C302.143 211.259 302.217 210.697 302.854 210.331L305.108 209.036C305.745 208.669 306.713 208.633 307.265 208.95L314.151 212.92C314.702 213.238 314.629 213.8 313.992 214.166L311.737 215.461C311.1 215.828 310.132 215.864 309.581 215.547Z" fill="#5793CE"/>
<path d="M320.118 221.617L313.232 217.647C312.68 217.329 312.754 216.767 313.391 216.401L315.645 215.106C316.283 214.74 317.251 214.703 317.802 215.021L324.688 218.991C325.239 219.308 325.166 219.87 324.529 220.237L322.274 221.532C321.637 221.898 320.669 221.935 320.118 221.617Z" fill="#5793CE"/>
<path d="M330.655 227.691L323.769 223.721C323.217 223.404 323.291 222.842 323.928 222.475L326.183 221.18C326.82 220.814 327.788 220.777 328.339 221.095L335.225 225.065C335.776 225.382 335.703 225.944 335.066 226.311L332.811 227.606C332.174 227.972 331.206 228.009 330.655 227.691Z" fill="#5793CE"/>
<path d="M341.194 233.75L334.308 229.78C333.756 229.462 333.83 228.9 334.467 228.534L336.722 227.239C337.359 226.872 338.327 226.836 338.878 227.153L345.764 231.123C346.316 231.441 346.242 232.003 345.605 232.369L343.35 233.664C342.713 234.031 341.745 234.067 341.194 233.75Z" fill="#5793CE"/>
<path d="M236.811 186.193L229.925 182.223C229.374 181.905 229.447 181.343 230.084 180.977L236.909 177.044C237.546 176.677 238.514 176.64 239.066 176.958L245.952 180.928C246.503 181.246 246.429 181.808 245.792 182.174L238.968 186.108C238.33 186.474 237.362 186.511 236.811 186.193Z" fill="#5793CE"/>
<path d="M247.448 192.314L240.562 188.344C240.01 188.026 240.084 187.465 240.721 187.098L247.546 183.165C248.183 182.798 249.151 182.761 249.702 183.079L256.588 187.049C257.14 187.367 257.066 187.929 256.429 188.295L249.604 192.229C248.967 192.595 247.999 192.632 247.448 192.314Z" fill="#5793CE"/>
<path d="M258.083 198.447L251.196 194.477C250.645 194.159 250.719 193.597 251.356 193.231L258.181 189.297C258.818 188.931 259.786 188.894 260.337 189.212L267.223 193.182C267.774 193.5 267.701 194.062 267.064 194.428L260.239 198.362C259.602 198.728 258.634 198.765 258.083 198.447Z" fill="#5793CE"/>
<path d="M268.717 204.564L261.831 200.594C261.28 200.277 261.353 199.715 261.991 199.348L268.815 195.415C269.452 195.048 270.42 195.011 270.972 195.329L277.858 199.299C278.409 199.617 278.336 200.179 277.699 200.545L270.874 204.479C270.237 204.845 269.269 204.882 268.717 204.564Z" fill="#5793CE"/>
<path d="M279.354 210.685L272.468 206.715C271.917 206.398 271.99 205.836 272.627 205.469L279.452 201.536C280.089 201.169 281.057 201.133 281.609 201.45L288.495 205.42C289.046 205.738 288.972 206.3 288.335 206.666L281.511 210.6C280.873 210.966 279.905 211.003 279.354 210.685Z" fill="#5793CE"/>
<path d="M289.989 216.806L283.103 212.836C282.551 212.519 282.625 211.957 283.262 211.59L290.087 207.657C290.724 207.29 291.692 207.254 292.243 207.571L299.129 211.541C299.681 211.859 299.607 212.421 298.97 212.787L292.145 216.721C291.508 217.087 290.54 217.124 289.989 216.806Z" fill="#5793CE"/>
<path d="M300.624 222.928L293.738 218.957C293.186 218.64 293.26 218.078 293.897 217.711L300.722 213.778C301.359 213.411 302.327 213.375 302.878 213.692L309.764 217.663C310.315 217.98 310.242 218.542 309.605 218.909L302.78 222.842C302.143 223.208 301.175 223.245 300.624 222.928Z" fill="#5793CE"/>
<path d="M311.26 229.056L304.374 225.086C303.823 224.769 303.896 224.207 304.534 223.84L311.358 219.907C311.995 219.54 312.963 219.504 313.515 219.821L320.401 223.791C320.952 224.109 320.879 224.671 320.242 225.037L313.417 228.971C312.78 229.337 311.812 229.374 311.26 229.056Z" fill="#5793CE"/>
<path d="M321.907 235.178L315.021 231.207C314.469 230.89 314.543 230.328 315.18 229.961L322.005 226.028C322.642 225.661 323.61 225.625 324.161 225.942L331.047 229.913C331.599 230.23 331.525 230.792 330.888 231.159L324.063 235.092C323.426 235.458 322.458 235.495 321.907 235.178Z" fill="#5793CE"/>
<path d="M175.989 186.948L155.698 175.27C155.147 174.952 155.221 174.39 155.858 174.024L162.683 170.09C163.32 169.724 164.288 169.687 164.839 170.005L185.13 181.683C185.681 182.001 185.607 182.563 184.97 182.929L178.146 186.863C177.508 187.229 176.54 187.266 175.989 186.948Z" fill="#5793CE"/>
<path d="M306.665 262.175L286.374 250.496C285.823 250.179 285.896 249.617 286.534 249.25L293.358 245.317C293.995 244.95 294.963 244.914 295.515 245.231L315.805 256.91C316.357 257.227 316.283 257.789 315.646 258.156L308.821 262.089C308.184 262.456 307.216 262.492 306.665 262.175Z" fill="#5793CE"/>
<path d="M264.135 251.204L257.249 247.234C256.698 246.916 256.771 246.354 257.409 245.988L265.544 241.309C266.181 240.943 267.149 240.906 267.701 241.224L274.587 245.194C275.138 245.511 275.065 246.073 274.428 246.44L266.292 251.118C265.655 251.485 264.687 251.522 264.135 251.204Z" fill="#5793CE"/>
<path d="M186.882 206.738L175.866 200.398C175.315 200.08 175.389 199.518 176.026 199.152L184.162 194.473C184.799 194.107 185.767 194.07 186.318 194.388L197.333 200.728C197.885 201.045 197.811 201.607 197.174 201.974L189.038 206.652C188.401 207.019 187.433 207.055 186.882 206.738Z" fill="#5793CE"/>
<path d="M253.88 245.304L242.864 238.964C242.313 238.647 242.387 238.085 243.024 237.718L251.16 233.04C251.797 232.673 252.765 232.636 253.316 232.954L264.331 239.294C264.883 239.612 264.809 240.174 264.172 240.54L256.036 245.219C255.399 245.585 254.431 245.622 253.88 245.304Z" fill="#5793CE"/>
<path d="M202.235 215.586L191.22 209.246C190.669 208.928 190.742 208.366 191.379 208L199.515 203.321C200.152 202.954 201.12 202.918 201.672 203.235L212.687 209.575C213.238 209.893 213.165 210.455 212.527 210.821L204.392 215.5C203.755 215.866 202.787 215.903 202.235 215.586Z" fill="#5793CE"/>
<path d="M201.733 203.27L249.629 230.841C250.229 231.183 250.229 231.732 249.629 232.074L241.334 236.851C240.733 237.193 239.778 237.193 239.177 236.851L191.281 209.28L201.721 203.27H201.733Z" fill="#5793CE"/>
<path d="M293.86 262.308L301.53 266.731C301.984 266.987 301.922 267.451 301.408 267.745L298.087 269.662C297.56 269.968 296.776 269.992 296.323 269.736L288.653 265.314C288.199 265.057 288.261 264.593 288.775 264.3L292.096 262.382C292.623 262.076 293.407 262.052 293.86 262.308Z" fill="#5793CE"/>
<path d="M283.139 256.141L290.81 260.563C291.263 260.819 291.202 261.283 290.687 261.577L287.367 263.494C286.84 263.8 286.056 263.824 285.602 263.568L277.932 259.146C277.479 258.889 277.54 258.425 278.054 258.132L281.375 256.214C281.902 255.908 282.686 255.884 283.139 256.141Z" fill="#5793CE"/>
<path d="M272.505 250.008L280.175 254.43C280.628 254.686 280.567 255.151 280.052 255.444L276.732 257.362C276.205 257.667 275.421 257.691 274.967 257.435L267.297 253.013C266.844 252.756 266.905 252.292 267.42 251.999L270.74 250.081C271.267 249.776 272.051 249.751 272.505 250.008Z" fill="#5793CE"/>
<path d="M289.009 252.758L296.679 257.18C297.132 257.436 297.071 257.901 296.556 258.194L293.236 260.112C292.709 260.417 291.925 260.441 291.471 260.185L283.801 255.763C283.348 255.506 283.409 255.042 283.924 254.749L287.244 252.831C287.771 252.526 288.555 252.501 289.009 252.758Z" fill="#5793CE"/>
<path d="M267.627 67.9083L250.326 57.9402L251.061 54.2266L268.362 64.1946L267.627 67.9083Z" fill="#D4ECFF"/>
<path d="M265.752 76.5328L248.451 66.5769L249.186 62.8633L266.487 72.8192L265.752 76.5328Z" fill="white"/>
<path d="M350.664 196.236L333.363 186.28L334.098 182.566L351.399 192.522L350.664 196.236Z" fill="#D4ECFF"/>
<path d="M261.99 93.7945L244.689 83.8386L245.437 80.125L262.738 90.0809L261.99 93.7945Z" fill="#D4ECFF"/>
<path d="M335.727 142.339L271.719 105.497L272.552 101.355L336.548 138.186L335.727 142.339Z" fill="#D4ECFF"/>
<path d="M312.802 149.34L268.129 123.626L268.95 119.473L313.623 145.187L312.802 149.34Z" fill="#D4ECFF"/>
<path d="M308.575 136.805L269.93 114.56L270.751 110.406L309.396 132.663L308.575 136.805Z" fill="white"/>
<path d="M300.366 101.209C299.753 102.553 298.197 103.03 296.886 102.272C295.575 101.515 295.024 99.8291 295.636 98.4854C296.249 97.1416 297.805 96.6652 299.116 97.4226C300.427 98.18 300.979 99.8657 300.366 101.209Z" fill="#FF2C9C"/>
<path d="M308.698 106.01C308.085 107.354 306.529 107.83 305.218 107.073C303.919 106.328 303.356 104.63 303.968 103.286C304.581 101.942 306.137 101.466 307.448 102.223C308.747 102.969 309.311 104.667 308.698 106.01Z" fill="white"/>
<path d="M317.018 110.799C316.406 112.143 314.85 112.619 313.539 111.862C312.228 111.105 311.676 109.419 312.289 108.075C312.901 106.731 314.458 106.255 315.769 107.012C317.08 107.77 317.631 109.456 317.018 110.799Z" fill="#D4ECFF"/>
<path d="M325.337 115.588C324.724 116.932 323.168 117.409 321.857 116.651C320.558 115.906 319.994 114.208 320.607 112.864C321.22 111.521 322.776 111.044 324.087 111.801C325.398 112.559 325.949 114.245 325.337 115.588Z" fill="#FF2C9C"/>
<path d="M333.926 151.403L314.604 140.274L315.424 136.121L334.747 147.25L333.926 151.403Z" fill="#FF2C9C"/>
<path d="M201.84 263.994L151.42 234.969C150.183 234.261 150.342 233.015 151.763 232.196L178.352 216.89C179.773 216.072 181.93 215.986 183.155 216.695L233.575 245.719C234.813 246.428 234.653 247.674 233.232 248.492L206.644 263.799C205.222 264.617 203.066 264.703 201.84 263.994Z" fill="white"/>
<path opacity="0.5" d="M241.319 291.405L104.713 212.87L144.522 189.953L281.116 268.488L241.319 291.405Z" fill="#01C5EE"/>
<path d="M241.319 273.329C240.951 273.329 240.596 273.232 240.265 273.048L103.671 194.513C103.022 194.134 102.617 193.45 102.617 192.693C102.617 191.935 103.022 191.251 103.671 190.873L143.48 167.956C144.13 167.577 144.926 167.577 145.588 167.956L282.181 246.491C282.831 246.87 283.235 247.554 283.235 248.311C283.235 249.069 282.831 249.753 282.181 250.132L242.372 273.048C242.041 273.232 241.686 273.329 241.319 273.329ZM108.94 192.693L241.319 268.809L276.913 248.324L144.534 172.207L108.94 192.693Z" fill="white"/>
<path d="M168.437 208.812C167.506 208.812 166.746 208.055 166.746 207.126V153.963C166.746 153.035 167.506 152.277 168.437 152.277C169.368 152.277 170.128 153.035 170.128 153.963V207.126C170.128 208.055 169.368 208.812 168.437 208.812Z" fill="#396CAA"/>
<path d="M160.094 147.941V183.856C160.094 185.09 160.915 186.311 162.544 187.252C165.804 189.133 171.084 189.133 174.344 187.252C175.973 186.311 176.794 185.09 176.794 183.856V147.941H160.106H160.094Z" fill="url(#paint8_radial_3002_25250)"/>
<path d="M160.094 153.856V166.011C164.995 168.247 171.893 168.247 176.782 166.011V153.856C171.881 151.621 164.983 151.621 160.094 153.856Z" fill="#396CAA"/>
<path d="M181.964 97.8945H154.91V154.222C154.91 156.213 156.233 158.204 158.868 159.731C164.149 162.773 172.713 162.773 177.994 159.731C180.641 158.216 181.952 156.213 181.952 154.222V97.8945H181.964Z" fill="url(#paint9_radial_3002_25250)"/>
<path d="M166.098 178.398C166.098 180.047 164.933 180.719 163.5 179.889C162.066 179.058 160.902 177.054 160.902 175.405C160.902 173.756 162.066 173.084 163.5 173.915C164.933 174.746 166.098 176.749 166.098 178.398Z" fill="#D4ECFF"/>
<path d="M220.892 239.035C219.961 239.035 219.201 238.277 219.201 237.349V184.186C219.201 183.257 219.961 182.5 220.892 182.5C221.823 182.5 222.583 183.257 222.583 184.186V237.349C222.583 238.277 221.823 239.035 220.892 239.035Z" fill="#396CAA"/>
<path d="M212.547 178.164V214.078C212.547 215.312 213.368 216.534 214.986 217.474C218.245 219.356 223.526 219.356 226.785 217.474C228.415 216.534 229.223 215.312 229.223 214.078V178.164H212.535H212.547Z" fill="url(#paint10_radial_3002_25250)"/>
<path d="M212.549 184.079V196.234C217.45 198.469 224.348 198.469 229.237 196.234V184.079C224.336 181.843 217.438 181.843 212.549 184.079Z" fill="#396CAA"/>
<path d="M234.419 128.117H207.365V184.444C207.365 186.435 208.689 188.427 211.323 189.954C216.604 192.995 225.168 192.995 230.449 189.954C233.096 188.439 234.407 186.435 234.407 184.444V128.117H234.419Z" fill="url(#paint11_radial_3002_25250)"/>
<path d="M218.553 208.621C218.553 210.27 217.389 210.942 215.955 210.111C214.521 209.281 213.357 207.277 213.357 205.628C213.357 203.979 214.521 203.307 215.955 204.138C217.389 204.968 218.553 206.972 218.553 208.621Z" fill="#D4ECFF"/>
<path d="M116.598 57.1193L152.498 36.5234C152.498 36.5234 151.15 57.0826 151.15 57.1193C151.15 57.1559 130.529 63.4837 130.529 63.4837L116.598 57.1193Z" fill="#5793CE"/>
<path d="M308.941 175.661C308.941 161.21 298.759 143.631 286.212 136.4C283.479 134.824 280.87 133.908 278.443 133.529C274.829 114.558 261.584 94.4139 245.802 85.3254C241.048 82.589 236.539 81.1354 232.447 80.8177C230.29 57.8276 214.251 31.698 194.782 20.4962C184.612 14.6448 175.385 13.9485 168.573 17.5399L168.242 17.711C168.071 17.8087 167.899 17.9064 167.727 18.0041L146.555 30.4765L153.588 36.0224C147.278 38.771 143.283 45.8317 143.283 56.2762C143.283 75.5283 156.835 98.9338 173.56 108.56L276.777 182.05L279.963 203.464L302.263 190.369C302.263 190.369 302.3 190.345 302.324 190.332L302.459 190.259C306.478 187.84 308.953 182.82 308.953 175.686L308.941 175.661Z" fill="url(#paint12_radial_3002_25250)"/>
<path d="M144.324 47.7873L192.919 19.4833C183.484 14.5726 174.956 14.1694 168.572 17.541L168.242 17.712C168.07 17.8097 167.899 17.9075 167.727 18.0052L146.554 30.4775L153.587 36.0235C149.176 37.9414 145.905 41.9848 144.324 47.7995V47.7873Z" fill="#5793CE"/>
<path d="M234.063 131.061L269.523 110.319C263.446 99.8374 255.065 90.6756 245.802 85.3373C244.576 84.6288 243.363 84.018 242.175 83.4805L197.072 109.781L234.076 131.073L234.063 131.061Z" fill="#5793CE"/>
<path d="M156.541 32.7858L172.347 41.8865L201.288 24.8944C199.181 23.2575 197 21.7794 194.782 20.4967C191.278 18.4811 187.884 17.0885 184.673 16.2578L156.553 32.7858H156.541Z" fill="#D4ECFF"/>
<path d="M265.614 104.211L237.311 120.837L247.15 131.782L272.844 116.659C270.81 112.322 268.371 108.132 265.614 104.211Z" fill="#D4ECFF"/>
<path d="M263.985 149.459C261.253 147.884 258.643 146.967 256.217 146.589C252.602 127.618 239.357 107.474 223.576 98.3852C218.834 95.6489 214.313 94.1952 210.22 93.8776C208.064 70.8875 192.025 44.7579 172.555 33.5438C151.615 21.4868 134.645 31.2595 134.645 55.3612C134.645 56.1797 134.67 56.9981 134.706 57.8288C119.39 50.7437 107.432 58.7206 107.432 76.8122C107.432 96.0642 120.983 119.47 137.708 129.096L263.997 201.792C276.557 209.024 286.739 203.16 286.739 188.709C286.739 174.258 276.557 156.679 263.997 149.447L263.985 149.459Z" fill="url(#paint13_linear_3002_25250)"/>
<path d="M134.694 57.84C134.657 57.0093 134.632 56.1909 134.632 55.3724C134.632 55.3358 134.632 55.2991 134.632 55.2747C126.178 52.0009 118.9 53.4179 114.342 58.6829C119.292 54.615 126.509 54.0653 134.694 57.84Z" fill="white"/>
<path d="M265.834 147.662C263.102 146.086 260.492 145.17 258.066 144.791C254.451 125.82 241.206 105.676 225.425 96.5874C220.683 93.8511 216.162 92.3974 212.069 92.0798C209.913 69.0897 193.874 42.9601 174.404 31.746C161.355 24.2333 149.85 25.1983 143.037 32.821C149.984 26.8963 160.632 26.6765 172.566 33.5417C192.036 44.7436 208.075 70.8732 210.231 93.8633C214.324 94.1809 218.845 95.6346 223.587 98.3709C239.368 107.459 252.614 127.603 256.228 146.574C258.654 146.953 261.264 147.869 263.996 149.445C276.555 156.677 286.738 174.243 286.738 188.707C286.738 193.923 285.402 198.003 283.111 200.764C286.517 198.15 288.588 193.41 288.588 186.911C288.588 172.46 278.406 154.881 265.847 147.649L265.834 147.662Z" fill="white"/>
<path d="M132.023 63.5827L141.519 67.9681L141.041 57.5481C141.005 56.8151 140.98 56.0944 140.98 55.3737C140.98 46.0652 143.798 39.3221 148.908 36.3781C154.017 33.4341 161.295 34.3747 169.37 39.0289C186.744 49.0337 201.913 73.3797 203.886 94.4642L204.388 99.778L209.718 100.181C213.002 100.438 216.592 101.671 220.39 103.858C234.199 111.798 246.636 130.269 249.968 147.762L250.802 152.135L255.213 152.819C256.977 153.1 258.852 153.796 260.788 154.92C271.386 161.028 280.343 176.493 280.343 188.697C280.343 193.265 279.069 196.613 276.863 197.895C274.646 199.166 271.104 198.592 267.135 196.307L140.845 123.611C126.154 115.158 113.742 93.719 113.742 76.8124C113.742 70.1792 115.703 65.1219 119.133 62.9352C120.542 62.0435 122.246 61.5915 124.169 61.5915C126.51 61.5915 129.168 62.2511 132.011 63.5704L132.023 63.5827Z" fill="url(#paint14_radial_3002_25250)"/>
<path d="M195.051 142.497L198.384 140.835L195.1 138.355L195.051 142.497Z" fill="#5793CE"/>
<path d="M185.053 97.6286L188.287 96.0039L188.336 97.6897L185.053 97.6286Z" fill="#5793CE"/>
<path d="M204.56 132.015L207.93 130.317L201.436 124.16L204.56 132.015Z" fill="#5793CE"/>
<path d="M197.403 140.725L181.633 131.465C180.837 131.001 180.188 129.816 180.188 128.827L180.237 110.625L198.91 121.583L198.861 139.784C198.861 140.774 198.211 141.201 197.403 140.725Z" fill="#5793CE"/>
<path d="M188.25 96.0168L171.219 106.95C170.496 107.414 171.084 109.137 172.175 109.784L189.574 119.996L206.972 130.209C208.075 130.856 208.663 129.818 207.94 128.511L191.019 97.6415C190.284 96.31 188.985 95.5404 188.238 96.0168H188.25Z" fill="#5793CE"/>
<path d="M194.022 142.424L178.252 133.164C177.456 132.7 176.807 131.515 176.807 130.526L176.856 112.324L195.529 123.282L195.48 141.483C195.48 142.473 194.83 142.9 194.022 142.424Z" fill="#D4ECFF"/>
<path d="M184.869 97.716L167.838 108.649C167.115 109.113 167.703 110.836 168.794 111.483L186.193 121.696L203.592 131.908C204.694 132.555 205.283 131.517 204.56 130.21L187.639 99.3407C186.903 98.0092 185.605 97.2396 184.857 97.716H184.869Z" fill="#D4ECFF"/>
</g>
<defs>
<radialGradient id="paint0_radial_3002_25250" cx="0" cy="0" r="1" gradientUnits="userSpaceOnUse" gradientTransform="translate(428.688 148.787) scale(41.2551 41.1306)">
<stop stop-color="#274F89"/>
<stop offset="1" stop-color="#173D7A"/>
</radialGradient>
<linearGradient id="paint1_linear_3002_25250" x1="403.631" y1="133.859" x2="476.621" y2="133.859" gradientUnits="userSpaceOnUse">
<stop stop-color="#D4ECFF"/>
<stop offset="0.24" stop-color="#D0E9FD"/>
<stop offset="0.46" stop-color="#C5E2F9"/>
<stop offset="0.67" stop-color="#B2D5F1"/>
<stop offset="0.88" stop-color="#98C4E7"/>
<stop offset="1" stop-color="#86B8E0"/>
</linearGradient>
<radialGradient id="paint2_radial_3002_25250" cx="0" cy="0" r="1" gradientUnits="userSpaceOnUse" gradientTransform="translate(369.372 106.227) scale(74.5703 74.3453)">
<stop stop-color="#699DD1"/>
<stop offset="0.27" stop-color="#6296CB"/>
<stop offset="0.64" stop-color="#5084BD"/>
<stop offset="1" stop-color="#396CAA"/>
</radialGradient>
<radialGradient id="paint3_radial_3002_25250" cx="0" cy="0" r="1" gradientUnits="userSpaceOnUse" gradientTransform="translate(8.67517 260.319) scale(48.2636 48.118)">
<stop stop-color="#699DD1"/>
<stop offset="0.27" stop-color="#6296CB"/>
<stop offset="0.64" stop-color="#5084BD"/>
<stop offset="1" stop-color="#396CAA"/>
</radialGradient>
<linearGradient id="paint4_linear_3002_25250" x1="17.7804" y1="244.888" x2="93.2599" y2="290.031" gradientUnits="userSpaceOnUse">
<stop stop-color="#D4ECFF"/>
<stop offset="0.2" stop-color="#D0E9FD"/>
<stop offset="0.39" stop-color="#C5E2F9"/>
<stop offset="0.57" stop-color="#B2D5F1"/>
<stop offset="0.74" stop-color="#98C4E7"/>
<stop offset="0.84" stop-color="#86B8E0"/>
</linearGradient>
<radialGradient id="paint5_radial_3002_25250" cx="0" cy="0" r="1" gradientUnits="userSpaceOnUse" gradientTransform="translate(391.648 221.023) scale(247.126 246.38)">
<stop stop-color="#86B8E0"/>
<stop offset="0.12" stop-color="#98C4E7"/>
<stop offset="0.33" stop-color="#B2D5F1"/>
<stop offset="0.54" stop-color="#C5E2F9"/>
<stop offset="0.76" stop-color="#D0E9FD"/>
<stop offset="1" stop-color="#D4ECFF"/>
</radialGradient>
<radialGradient id="paint6_radial_3002_25250" cx="0" cy="0" r="1" gradientUnits="userSpaceOnUse" gradientTransform="translate(372.082 165.331) scale(170.056 169.543)">
<stop stop-color="#01A5F3"/>
<stop offset="1" stop-color="#274F89"/>
</radialGradient>
<radialGradient id="paint7_radial_3002_25250" cx="0" cy="0" r="1" gradientUnits="userSpaceOnUse" gradientTransform="translate(398.375 239.982) scale(335.383 334.371)">
<stop stop-color="#86B8E0"/>
<stop offset="0.12" stop-color="#98C4E7"/>
<stop offset="0.33" stop-color="#B2D5F1"/>
<stop offset="0.54" stop-color="#C5E2F9"/>
<stop offset="0.76" stop-color="#D0E9FD"/>
<stop offset="1" stop-color="#D4ECFF"/>
</radialGradient>
<radialGradient id="paint8_radial_3002_25250" cx="0" cy="0" r="1" gradientUnits="userSpaceOnUse" gradientTransform="translate(159.065 182.085) scale(15.5978 15.5507)">
<stop stop-color="#699DD1"/>
<stop offset="0.27" stop-color="#6296CB"/>
<stop offset="0.64" stop-color="#5084BD"/>
<stop offset="1" stop-color="#396CAA"/>
</radialGradient>
<radialGradient id="paint9_radial_3002_25250" cx="0" cy="0" r="1" gradientUnits="userSpaceOnUse" gradientTransform="translate(150.34 165.399) scale(24.6648 24.5904)">
<stop stop-color="#699DD1"/>
<stop offset="0.27" stop-color="#6296CB"/>
<stop offset="0.64" stop-color="#5084BD"/>
<stop offset="1" stop-color="#396CAA"/>
</radialGradient>
<radialGradient id="paint10_radial_3002_25250" cx="0" cy="0" r="1" gradientUnits="userSpaceOnUse" gradientTransform="translate(211.506 212.307) scale(15.5978 15.5507)">
<stop stop-color="#699DD1"/>
<stop offset="0.27" stop-color="#6296CB"/>
<stop offset="0.64" stop-color="#5084BD"/>
<stop offset="1" stop-color="#396CAA"/>
</radialGradient>
<radialGradient id="paint11_radial_3002_25250" cx="0" cy="0" r="1" gradientUnits="userSpaceOnUse" gradientTransform="translate(202.783 195.622) scale(24.6648 24.5904)">
<stop stop-color="#699DD1"/>
<stop offset="0.27" stop-color="#6296CB"/>
<stop offset="0.64" stop-color="#5084BD"/>
<stop offset="1" stop-color="#396CAA"/>
</radialGradient>
<radialGradient id="paint12_radial_3002_25250" cx="0" cy="0" r="1" gradientUnits="userSpaceOnUse" gradientTransform="translate(226.112 109.39) scale(88.7713 88.5034)">
<stop stop-color="#699DD1"/>
<stop offset="0.27" stop-color="#6296CB"/>
<stop offset="0.64" stop-color="#5084BD"/>
<stop offset="1" stop-color="#396CAA"/>
</radialGradient>
<linearGradient id="paint13_linear_3002_25250" x1="107.419" y1="116.648" x2="286.714" y2="116.648" gradientUnits="userSpaceOnUse">
<stop stop-color="#D4ECFF"/>
<stop offset="0.24" stop-color="#D0E9FD"/>
<stop offset="0.46" stop-color="#C5E2F9"/>
<stop offset="0.67" stop-color="#B2D5F1"/>
<stop offset="0.88" stop-color="#98C4E7"/>
<stop offset="1" stop-color="#86B8E0"/>
</linearGradient>
<radialGradient id="paint14_radial_3002_25250" cx="0" cy="0" r="1" gradientUnits="userSpaceOnUse" gradientTransform="translate(280.735 183.42) scale(179.503 178.961)">
<stop stop-color="#019DF4"/>
<stop offset="1" stop-color="#274F89"/>
</radialGradient>
<clipPath id="clip0_3002_25250">
<rect width="464" height="382" fill="white"/>
</clipPath>
</defs>
</svg>
