<svg width="304" height="153" viewBox="0 0 304 153" fill="none" xmlns="http://www.w3.org/2000/svg">
<path d="M338.197 23.4704C343.302 25.7562 347.041 30.6653 347.519 36.5563C348.952 54.3428 345.845 72.3748 338.54 88.6907C314.23 142.986 249.658 167.095 194.587 142.438C163.318 128.438 140.711 100.881 132.678 68.7482C108.832 78.1492 81.6822 77.7629 57.4862 66.9295C26.0792 52.8675 4.31613 23.0836 0.682831 -10.8059C-0.230112 -19.3464 6.01959 -26.9457 14.632 -27.7597C23.255 -28.569 30.9824 -22.3021 31.8954 -13.7616C34.3378 9.07123 48.9974 29.1416 70.1516 38.6131C91.3059 48.0846 116.849 45.5864 135.638 31.5674C140.353 28.0516 146.709 27.4862 152.039 30.1245C157.374 32.7523 160.788 38.1324 160.864 44.0073C161.225 74.1407 179.44 101.669 207.263 114.126C246.498 131.693 292.504 114.516 309.824 75.8334C315.035 64.1942 317.244 51.3617 316.231 38.7105C315.535 30.1413 321.986 22.7201 330.629 22.1215C333.315 21.9395 335.904 22.4314 338.212 23.4647L338.197 23.4704Z" fill="url(#paint0_linear_3002_25536)" fill-opacity="0.1"/>
<defs>
<linearGradient id="paint0_linear_3002_25536" x1="328.629" y1="110.826" x2="8.1782" y2="-32.6508" gradientUnits="userSpaceOnUse">
<stop offset="0.03" stop-color="#005DFD"/>
<stop offset="1" stop-color="#00DAEA"/>
</linearGradient>
</defs>
</svg>
