<svg width="90" height="68" viewBox="0 0 90 68" fill="none" xmlns="http://www.w3.org/2000/svg">
<g clip-path="url(#clip0_3002_25716)">
<mask id="mask0_3002_25716" style="mask-type:alpha" maskUnits="userSpaceOnUse" x="11" y="0" width="68" height="68">
<path d="M59.0446 66.7649C60.1003 67.1763 61.3042 67.1498 62.3698 66.6372L76.1698 59.9969C77.6198 59.2992 78.542 57.8313 78.542 56.2213V11.1959C78.542 9.58587 77.6198 8.11829 76.1698 7.42051L62.3698 0.780002C60.9714 0.107116 59.3347 0.271931 58.1075 1.1642C57.9321 1.29167 57.765 1.43398 57.6084 1.59082L31.1899 25.6929L19.6825 16.9579C18.6113 16.1447 17.113 16.2114 16.1181 17.1164L12.4273 20.4737C11.2103 21.5807 11.2089 23.4952 12.4243 24.604L22.4038 33.7085L12.4243 42.8131C11.2089 43.9219 11.2103 45.8364 12.4273 46.9434L16.1181 50.3006C17.113 51.2057 18.6113 51.2723 19.6825 50.4593L31.1899 41.7241L57.6084 65.8263C58.0263 66.2444 58.517 66.5594 59.0446 66.7649ZM61.7951 18.4924L41.7495 33.7085L61.7951 48.9247V18.4924Z" fill="white"/>
</mask>
<g mask="url(#mask0_3002_25716)">
<path d="M76.2107 7.4303L62.4 0.780647C60.8015 0.0109523 58.891 0.335627 57.6363 1.59021L12.4248 42.8125C11.2088 43.9214 11.2102 45.8359 12.4278 46.9429L16.1209 50.3001C17.1164 51.2052 18.6156 51.2717 19.6875 50.4587L74.1326 9.15539C75.9591 7.76974 78.5826 9.0725 78.5826 11.3652V11.2048C78.5826 9.5955 77.6607 8.12845 76.2107 7.4303Z" fill="#0065A9"/>
<path d="M76.2107 59.9868L62.4 66.6365C60.8015 67.406 58.891 67.0813 57.6363 65.8269L12.4248 24.6046C11.2088 23.4958 11.2102 21.5812 12.4278 20.4743L16.1209 17.1169C17.1164 16.2119 18.6156 16.1453 19.6875 16.9585L74.1326 58.2616C75.9591 59.6472 78.5826 58.3446 78.5826 56.0518V56.2123C78.5826 57.8215 77.6607 59.2885 76.2107 59.9868Z" fill="#007ACC"/>
<path d="M62.356 66.6409C60.7571 67.4099 58.8465 67.085 57.5918 65.8303C59.1376 67.3761 61.7811 66.2812 61.7811 64.0949V3.32997C61.7811 1.14369 59.1376 0.0487831 57.5918 1.59472C58.8465 0.340026 60.7571 0.0148938 62.356 0.783909L76.1644 7.42443C77.6154 8.1222 78.5381 9.58978 78.5381 11.1998V56.2253C78.5381 57.8353 77.6154 59.3029 76.1644 60.0007L62.356 66.6409Z" fill="#1F9CF0"/>
<path d="M59.0446 66.765C60.1003 67.1761 61.3042 67.1499 62.3696 66.6372L76.1696 59.9967C77.6199 59.2989 78.542 57.8314 78.542 56.2214V11.1959C78.542 9.58586 77.6199 8.11828 76.1698 7.4205L62.3696 0.780003C60.9714 0.107116 59.3348 0.271931 58.1073 1.1642C57.9321 1.29166 57.7651 1.43398 57.6083 1.59082L31.1899 25.6929L19.6825 16.9579C18.6113 16.1447 17.113 16.2114 16.1181 17.1164L12.4273 20.4737C11.2103 21.5807 11.2089 23.4952 12.4243 24.604L22.4038 33.7085L12.4243 42.8131C11.2089 43.922 11.2103 45.8365 12.4273 46.9435L16.1181 50.3006C17.113 51.2058 18.6113 51.2723 19.6825 50.4593L31.1899 41.7242L57.6083 65.8263C58.0261 66.2445 58.5171 66.5595 59.0446 66.765ZM61.7952 18.4923L41.7495 33.7085L61.7952 48.9247V18.4923Z" fill="url(#paint0_linear_3002_25716)" fill-opacity="0.25"/>
</g>
</g>
<defs>
<linearGradient id="paint0_linear_3002_25716" x1="45.0279" y1="0.367187" x2="45.0279" y2="67.0499" gradientUnits="userSpaceOnUse">
<stop stop-color="white"/>
<stop offset="1" stop-color="white" stop-opacity="0"/>
</linearGradient>
<clipPath id="clip0_3002_25716">
<rect width="67.2901" height="66.7644" fill="white" transform="translate(11.5117 0.367188)"/>
</clipPath>
</defs>
</svg>
