<svg width="23" height="23" viewBox="0 0 23 23" fill="none" xmlns="http://www.w3.org/2000/svg">
<g clip-path="url(#clip0_3006_101)">
<path d="M22.1576 8.69017L14.8887 1.42026C13.989 0.523246 12.7704 0.0195312 11.5 0.0195312C10.2296 0.0195312 9.01099 0.523246 8.11135 1.42026L0.842387 8.69017C0.574461 8.95638 0.362041 9.27313 0.217441 9.62204C0.0728403 9.97096 -0.00106413 10.3451 1.15762e-05 10.7228V20.1308C1.15762e-05 20.8933 0.302913 21.6245 0.84208 22.1637C1.38125 22.7029 2.11251 23.0058 2.87501 23.0058H20.125C20.8875 23.0058 21.6188 22.7029 22.1579 22.1637C22.6971 21.6245 23 20.8933 23 20.1308V10.7228C23.0011 10.3451 22.9272 9.97096 22.7826 9.62204C22.638 9.27313 22.4256 8.95638 22.1576 8.69017ZM14.375 21.0891H8.62501V17.319C8.62501 16.5565 8.92791 15.8252 9.46708 15.2861C10.0062 14.7469 10.7375 14.444 11.5 14.444C12.2625 14.444 12.9938 14.7469 13.5329 15.2861C14.0721 15.8252 14.375 16.5565 14.375 17.319V21.0891ZM21.0833 20.1308C21.0833 20.3849 20.9824 20.6287 20.8027 20.8084C20.6229 20.9881 20.3792 21.0891 20.125 21.0891H16.2917V17.319C16.2917 16.0482 15.7868 14.8294 14.8882 13.9308C13.9896 13.0322 12.7708 12.5273 11.5 12.5273C10.2292 12.5273 9.0104 13.0322 8.11179 13.9308C7.21318 14.8294 6.70834 16.0482 6.70834 17.319V21.0891H2.87501C2.62085 21.0891 2.37709 20.9881 2.19737 20.8084C2.01765 20.6287 1.91668 20.3849 1.91668 20.1308V10.7228C1.91757 10.4688 2.01844 10.2254 2.19747 10.0453L9.46643 2.77821C10.0066 2.24052 10.7378 1.93866 11.5 1.93866C12.2622 1.93866 12.9934 2.24052 13.5336 2.77821L20.8026 10.0481C20.9809 10.2276 21.0817 10.4698 21.0833 10.7228V20.1308Z" fill="url(#paint0_linear_3006_101)"/>
</g>
<defs>
<linearGradient id="paint0_linear_3006_101" x1="11.5" y1="0.0195312" x2="11.5" y2="23.0058" gradientUnits="userSpaceOnUse">
<stop stop-color="#01D5EB"/>
<stop offset="1" stop-color="#0166FC"/>
</linearGradient>
<clipPath id="clip0_3006_101">
<rect width="23" height="23" fill="white"/>
</clipPath>
</defs>
</svg>
