<svg width="87" height="87" viewBox="0 0 87 87" fill="none" xmlns="http://www.w3.org/2000/svg">
<path d="M85.5976 43.7054C86.1783 43.7054 86.6504 43.2345 86.6362 42.654C86.3669 31.6021 81.8592 21.0598 74.0231 13.2236C65.9388 5.13935 54.9742 0.597657 43.5413 0.597656C32.1084 0.597655 21.1438 5.13935 13.0596 13.2236C5.22343 21.0597 0.715734 31.6021 0.446401 42.654C0.432254 43.2345 0.904325 43.7054 1.485 43.7054L9.79363 43.7054C10.3743 43.7054 10.8433 43.2343 10.8619 42.6539C11.1284 34.3639 14.5381 26.4691 20.4216 20.5856C26.5533 14.4539 34.8697 11.0091 43.5413 11.0091C52.2129 11.0091 60.5294 14.4539 66.6611 20.5856C72.5446 26.4691 75.9543 34.3639 76.2207 42.6539C76.2394 43.2343 76.7083 43.7054 77.289 43.7054H85.5976Z" fill="#0188F7"/>
<path d="M85.5976 43.7054C86.1783 43.7054 86.6504 43.2345 86.6362 42.654C86.4373 34.4957 83.9259 26.5533 79.3841 19.756C74.6474 12.667 67.9148 7.14176 60.0379 3.87904C52.161 0.616315 43.4935 -0.237362 35.1314 1.42596C27.1134 3.02084 19.7216 6.86115 13.8121 12.4892C13.3916 12.8897 13.3924 13.5565 13.803 13.9671L19.6781 19.8422C20.0887 20.2528 20.7533 20.2514 21.1769 19.8542C25.628 15.6805 31.1643 12.8305 37.1626 11.6373C43.5051 10.3758 50.0792 11.0233 56.0537 13.498C62.0281 15.9727 67.1346 20.1634 70.7273 25.5403C74.1251 30.6254 76.0246 36.5554 76.2207 42.6541C76.2394 43.2344 76.7083 43.7054 77.289 43.7054H85.5976Z" fill="#026AA2"/>
<path d="M15.7719 10.7337C13.7981 12.3961 11.9775 14.2323 10.3321 16.2204L18.3529 22.8586C19.6008 21.3507 20.9817 19.9579 22.4788 18.697L15.7719 10.7337Z" fill="#FAFAFA"/>
<circle cx="43.0152" cy="42.1304" r="5.78274" fill="#026AA2"/>
<circle cx="43.0152" cy="42.1285" r="2.62852" fill="#FAFAFA"/>
<path d="M23.045 22.6702L42.496 37.3899L38.2845 41.6028L23.045 22.6702Z" fill="#026AA2"/>
</svg>
