<svg width="32" height="40" viewBox="0 0 32 40" fill="none" xmlns="http://www.w3.org/2000/svg">
<g clip-path="url(#clip0_2244_13892)">
<path d="M1.08984 3.83588V36.1625C1.08984 37.6922 2.35647 38.9319 3.91931 38.9319H28.0797C29.6425 38.9319 30.9091 37.6922 30.9091 36.1625V9.18985C30.9091 8.45523 30.6111 7.75086 30.0805 7.23147L24.6105 1.87751C24.0799 1.35812 23.3603 1.06641 22.6097 1.06641H3.91931C2.35647 1.06641 1.08984 2.30618 1.08984 3.83588Z" fill="white"/>
<path d="M22.6084 1.06724C23.359 1.06724 24.0786 1.35895 24.6092 1.87834L30.0792 7.2323C30.6098 7.75169 30.9078 8.45607 30.9078 9.19068V36.1633C30.9078 37.693 29.6412 38.9328 28.0784 38.9328H3.91981C2.35698 38.9328 1.09035 37.693 1.09035 36.1633V3.83671C1.09035 2.30701 2.35698 1.06724 3.91981 1.06724H22.6084ZM22.6084 0H3.91981C1.7591 0 0 1.72181 0 3.83671V36.1633C0 38.2782 1.7591 40 3.91981 40H28.0802C30.2409 40 32 38.2782 32 36.1633V9.19068C32 8.16613 31.5929 7.20206 30.8515 6.47812L25.3816 1.12416C24.6419 0.400213 23.657 0 22.6103 0H22.6084Z" fill="#ED2929"/>
<path d="M30.9091 32.1406H1.08984V33.2079H30.9091V32.1406Z" fill="#ED2929"/>
<path d="M9.15047 18.8899V21.6931H7.50586V13.7227H10.279C11.084 13.7227 11.7255 13.9681 12.2053 14.4555C12.685 14.9446 12.9231 15.5796 12.9231 16.3605C12.9231 17.1414 12.6868 17.7586 12.2125 18.2104C11.7382 18.6622 11.0822 18.8899 10.2445 18.8899H9.14866H9.15047ZM9.15047 17.5487H10.2808C10.5934 17.5487 10.8369 17.4491 11.0077 17.2481C11.1785 17.0471 11.2658 16.7554 11.2658 16.373C11.2658 15.9905 11.1785 15.6579 11.0023 15.4231C10.8278 15.1883 10.5916 15.0674 10.2972 15.0638H9.15047V17.5487Z" fill="#434647"/>
<path d="M14.0234 21.6931V13.7227H16.1769C17.1273 13.7227 17.8851 14.0179 18.4503 14.6102C19.0154 15.2026 19.3026 16.0119 19.3135 17.04V18.3313C19.3135 19.379 19.0318 20.2008 18.4666 20.7967C17.9015 21.3925 17.1237 21.6914 16.1314 21.6914H14.0234V21.6931ZM15.6681 15.0638V20.3573H16.1605C16.7093 20.3573 17.0946 20.2168 17.3181 19.934C17.5416 19.6512 17.6598 19.1638 17.6707 18.4701V17.0844C17.6707 16.3392 17.5653 15.8216 17.3526 15.5281C17.14 15.2346 16.7784 15.0798 16.2677 15.0656H15.6699L15.6681 15.0638Z" fill="#434647"/>
<path d="M24.6919 18.4416H22.1368V21.6931H20.4922V13.7227H24.999V15.0638H22.135V17.1058H24.69V18.4416H24.6919Z" fill="#434647"/>
<path d="M1.08984 33.1719V36.1637C1.08984 37.6934 2.35647 38.9332 3.91931 38.9332H28.0797C29.6425 38.9332 30.9091 37.6934 30.9091 36.1637V33.1719H1.08984Z" fill="#FFABAB"/>
</g>
<defs>
<clipPath id="clip0_2244_13892">
<rect width="32" height="40" fill="white"/>
</clipPath>
</defs>
</svg>
