<svg width="38" height="42" viewBox="0 0 38 42" fill="none" xmlns="http://www.w3.org/2000/svg">
<rect width="38" height="42" rx="12" fill="#FAFAFA"/>
<g clip-path="url(#clip0_3100_107)">
<path d="M11.1785 27.2237C10.9157 27.4483 10.5488 27.5059 10.2298 27.3726L8.56375 26.6737C8.22401 26.532 8.002 26.2008 8 25.8326V16.0564C8.002 15.6883 8.22401 15.3571 8.56375 15.2154L10.2298 14.5278C10.5488 14.3946 10.9157 14.4522 11.1785 14.6768L11.5521 14.9862C11.3976 14.8751 11.194 14.86 11.0248 14.947C10.8557 15.034 10.7495 15.2085 10.75 15.3987V26.4903C10.7495 26.6806 10.8557 26.855 11.0248 26.942C11.194 27.029 11.3976 27.0139 11.5521 26.9028L11.1785 27.2237Z" fill="#52218A"/>
<path d="M8.56375 26.6712C8.22401 26.5295 8.002 26.1983 8 25.8301V25.7545C8.00231 25.971 8.1362 26.1643 8.33807 26.2425C8.53994 26.3207 8.76909 26.2681 8.91667 26.1097L23.125 10.4003C23.5373 9.99009 24.1632 9.88364 24.6879 10.1345L29.2208 12.3162C29.6973 12.5453 30.0002 13.0273 30 13.556V13.6087C29.9997 13.2732 29.8063 12.9679 29.5031 12.8244C29.1998 12.6809 28.8411 12.7248 28.5815 12.9372L11.5521 26.9004L11.1785 27.2212C10.9157 27.4458 10.5488 27.5034 10.2298 27.3701L8.56375 26.6712Z" fill="#6C33AF"/>
<path d="M8.56375 15.2153C8.22401 15.357 8.002 15.6882 8 16.0563V16.1319C8.00231 15.9155 8.1362 15.7222 8.33807 15.644C8.53994 15.5658 8.76909 15.6183 8.91667 15.7767L23.125 31.4861C23.5373 31.8964 24.1632 32.0028 24.6879 31.7519L29.2208 29.5703C29.6973 29.3412 30.0002 28.8592 30 28.3305V28.2778C29.9997 28.6132 29.8063 28.9185 29.5031 29.0621C29.1998 29.2056 28.8411 29.1617 28.5815 28.9492L11.5521 14.9861L11.1785 14.6653C10.9134 14.4445 10.5467 14.3914 10.2298 14.5278L8.56375 15.2153Z" fill="#854CC7"/>
<path d="M24.6879 31.7495C24.1632 32.0004 23.5373 31.8939 23.125 31.4837C23.3559 31.7129 23.702 31.781 24.0025 31.6563C24.3031 31.5316 24.4993 31.2385 24.5 30.9131V10.9756C24.5011 10.6493 24.3056 10.3545 24.0047 10.2286C23.7037 10.1027 23.3565 10.1705 23.125 10.4003C23.5373 9.99009 24.1632 9.88364 24.6879 10.1345L29.2208 12.3139C29.6973 12.543 30.0002 13.025 30 13.5537V28.3303C30.0002 28.859 29.6973 29.341 29.2208 29.5701L24.6879 31.7495Z" fill="#B179F1"/>
<path d="M23.7873 31.8516C24.0903 31.9207 24.4077 31.8852 24.6879 31.7507L29.2208 29.5714C29.6973 29.3423 30.0002 28.8603 30 28.3316V13.5549C30.0002 13.0262 29.6973 12.5442 29.2208 12.3151L24.6879 10.1357C24.3672 9.98157 23.9992 9.95775 23.6613 10.0693C23.4592 10.137 23.2756 10.2507 23.125 10.4016L15.8192 18.482L11.5521 14.9849L11.1785 14.6641C10.9505 14.4691 10.6415 14.3981 10.3513 14.4739C10.3094 14.4831 10.2686 14.497 10.2298 14.5151L8.56375 15.2141C8.24582 15.3453 8.02814 15.6436 8 15.9864C8 16.0093 8 16.0322 8 16.0551V25.8314C8 25.8543 8 25.8772 8 25.9001C8.02814 26.2429 8.24582 26.5411 8.56375 26.6724L10.2298 27.3599C10.2686 27.3781 10.3094 27.3919 10.3513 27.4012C10.6415 27.477 10.9505 27.4059 11.1785 27.211L11.5521 26.9016L15.8192 23.4045L23.125 31.4849C23.3071 31.6667 23.5366 31.7937 23.7873 31.8516ZM24.5 16.2866L18.819 20.9432L24.5 25.5999V16.2866ZM10.75 17.7968L13.594 20.9432L10.75 24.0897V17.7968Z" fill="url(#paint0_linear_3100_107)" fill-opacity="0.25"/>
</g>
<defs>
<linearGradient id="paint0_linear_3100_107" x1="19" y1="10.0005" x2="19" y2="31.886" gradientUnits="userSpaceOnUse">
<stop stop-color="white"/>
<stop offset="1" stop-color="white" stop-opacity="0"/>
</linearGradient>
<clipPath id="clip0_3100_107">
<rect width="22" height="22" fill="white" transform="translate(8 10)"/>
</clipPath>
</defs>
</svg>
