<svg width="259" height="84" viewBox="0 0 259 84" fill="none" xmlns="http://www.w3.org/2000/svg">
<g clip-path="url(#clip0_3002_25522)">
<path d="M10.9235 68.7656C8.65757 68.7656 6.46249 67.5618 5.31067 65.4494C1.83631 59.0701 0 51.843 0 44.555C0 20.3024 19.8831 0.574219 44.3264 0.574219C58.2049 0.574219 71.1252 7.06127 79.4145 17.6794C86.6748 10.2088 96.7769 5.82943 107.516 5.82943C121.456 5.82943 134.433 13.286 141.386 25.2906C143.138 28.3163 142.085 32.1851 139.036 33.9228C135.981 35.6605 132.087 34.616 130.336 31.5903C125.653 23.5014 116.91 18.4757 107.521 18.4757C98.1317 18.4757 89.1012 23.6606 84.475 32.0072C83.3137 34.1008 81.0573 35.3701 78.6498 35.2764C76.2423 35.1875 74.0897 33.7542 73.0889 31.5809C67.9671 20.4288 56.6754 13.2205 44.3264 13.2205C26.9121 13.2205 12.7456 27.2765 12.7456 44.555C12.7456 49.754 14.0532 54.8969 16.5221 59.4354C18.1979 62.508 17.0413 66.344 13.9446 68.0068C12.9816 68.522 11.9431 68.7702 10.9187 68.7702L10.9235 68.7656Z" fill="url(#paint0_linear_3002_25522)"/>
<path d="M77.4611 83.2337C72.9624 83.2337 68.5109 82.0956 64.5881 79.941C63.3324 79.2525 62.8792 77.6834 63.5731 76.4375C64.2671 75.1917 65.8485 74.742 67.1041 75.4305C70.2575 77.1635 73.8404 78.0769 77.4658 78.0769C81.0913 78.0769 84.9857 77.0792 88.2477 75.1917C89.4845 74.475 91.0753 74.8872 91.7976 76.119C92.5198 77.3462 92.1044 78.9246 90.8629 79.6413C86.8126 81.9878 82.177 83.229 77.4658 83.229L77.4611 83.2337Z" fill="#FFCE00"/>
<path d="M56.4954 46.7484C55.8393 45.5541 54.9376 44.6501 53.7905 44.0225C52.6434 43.3995 51.3028 43.0857 49.7733 43.0857C48.0786 43.0857 46.5775 43.4651 45.2651 44.2239C43.9528 44.9826 42.9285 46.0693 42.192 47.4744C41.4556 48.8842 41.0874 50.5095 41.0874 52.3549C41.0874 54.2003 41.4604 55.9052 42.2156 57.3151C42.9662 58.7249 44.0095 59.8068 45.3501 60.5656C46.686 61.3244 48.2438 61.7038 50.0235 61.7038C52.2091 61.7038 53.9982 61.1277 55.3908 59.9755C56.7834 58.8232 57.6992 57.2167 58.1382 55.1558H48.3052V50.8046H63.7935V55.7647C63.4111 57.7413 62.5897 59.5726 61.334 61.2541C60.0784 62.9356 58.4592 64.2845 56.4766 65.3009C54.4939 66.3173 52.2752 66.8232 49.8205 66.8232C47.059 66.8232 44.5712 66.2049 42.3431 64.9731C40.115 63.7412 38.3684 62.027 37.0985 59.8303C35.8287 57.6336 35.1914 55.1418 35.1914 52.3502C35.1914 49.5587 35.8287 47.0575 37.0985 44.8515C38.3684 42.6407 40.115 40.9218 42.3431 39.6899C44.5712 38.4581 47.0495 37.8398 49.778 37.8398C53.0022 37.8398 55.8015 38.6174 58.176 40.1771C60.5504 41.7368 62.1932 43.9241 63.0948 46.7437H56.5002L56.4954 46.7484Z" fill="#314184"/>
<path d="M72.23 65.5109C70.4834 64.5507 69.1097 63.1877 68.1136 61.4266C67.1176 59.6655 66.6172 57.6327 66.6172 55.3283C66.6172 53.0239 67.127 50.9911 68.1514 49.23C69.1757 47.4689 70.573 46.1059 72.3527 45.1457C74.1277 44.1856 76.1103 43.7031 78.2959 43.7031C80.4816 43.7031 82.4595 44.1856 84.2392 45.1457C86.0141 46.1059 87.4161 47.4689 88.4405 49.23C89.4649 50.9911 89.9747 53.0239 89.9747 55.3283C89.9747 57.6327 89.4507 59.6655 88.398 61.4266C87.3453 63.1877 85.9244 64.5507 84.1353 65.5109C82.3462 66.471 80.3447 66.9535 78.1307 66.9535C75.9168 66.9535 73.9766 66.471 72.23 65.5109ZM81.0622 61.2439C81.978 60.7428 82.7097 59.9887 83.2526 58.9863C83.8001 57.984 84.0739 56.7662 84.0739 55.3283C84.0739 53.1878 83.5075 51.5391 82.3745 50.3869C81.2416 49.2347 79.8537 48.6586 78.2157 48.6586C76.5776 48.6586 75.2039 49.2347 74.0993 50.3869C72.9947 51.5391 72.4377 53.1878 72.4377 55.3283C72.4377 57.4688 72.9758 59.1175 74.0568 60.2697C75.1379 61.4219 76.4927 61.998 78.1354 61.998C79.174 61.998 80.1511 61.7498 81.0669 61.2439H81.0622Z" fill="#314184"/>
<path d="M130.906 46.4418C132.558 48.0811 133.385 50.4605 133.385 53.5752V66.5868H130.557V53.9031C130.557 51.4909 129.972 49.6502 128.796 48.3762C127.621 47.1022 126.025 46.4652 124 46.4652C121.975 46.4652 120.214 47.1584 118.958 48.5402C117.703 49.9219 117.075 51.9265 117.075 54.5588V66.5915H114.247V53.9078C114.247 51.4956 113.657 49.6549 112.487 48.3809C111.311 47.1069 109.701 46.4699 107.653 46.4699C105.604 46.4699 103.867 47.1631 102.611 48.5448C101.355 49.9266 100.728 51.9312 100.728 54.5635V66.5962H97.8574V44.3997H100.728V48.2217C101.436 46.8399 102.451 45.7908 103.758 45.0695C105.07 44.3528 106.529 43.9922 108.144 43.9922C110.084 43.9922 111.783 44.4512 113.247 45.3739C114.705 46.2966 115.767 47.6502 116.424 49.4394C117.023 47.6783 118.057 46.3294 119.515 45.3926C120.979 44.4559 122.636 43.9922 124.496 43.9922C127.12 43.9922 129.254 44.8119 130.906 46.4512V46.4418Z" fill="#4C679E"/>
<path d="M158.177 44.3906L144.903 77.0367H141.91L146.253 66.4653L137.076 44.3906H140.23L147.849 63.3366L155.222 44.3906H158.173H158.177Z" fill="#4C679E"/>
<path d="M169.063 49.4538C169.992 47.7349 171.267 46.4047 172.896 45.4679C174.52 44.5311 176.356 44.0675 178.405 44.0675C180.453 44.0675 182.148 44.5405 183.729 45.4913C185.315 46.4421 186.477 47.674 187.213 49.1915V36.5078H190.083V66.5918H187.213V61.6317C186.529 63.1773 185.41 64.442 183.852 65.4349C182.294 66.4232 180.463 66.9197 178.362 66.9197C176.261 66.9197 174.477 66.4466 172.853 65.4958C171.229 64.5497 169.959 63.2054 169.044 61.4724C168.128 59.7394 167.67 57.7301 167.67 55.4538C167.67 53.1774 168.133 51.1775 169.063 49.4585V49.4538ZM186.109 50.7746C185.372 49.421 184.367 48.3765 183.097 47.6459C181.827 46.9152 180.425 46.5499 178.895 46.5499C177.366 46.5499 175.888 46.9011 174.633 47.6084C173.377 48.3157 172.386 49.3367 171.664 50.6763C170.941 52.0159 170.578 53.6083 170.578 55.4538C170.578 57.2992 170.941 58.8636 171.664 60.2312C172.386 61.5989 173.377 62.6434 174.633 63.36C175.888 64.0766 177.309 64.4373 178.895 64.4373C180.482 64.4373 181.827 64.0719 183.097 63.3413C184.367 62.6106 185.372 61.5661 186.109 60.2125C186.845 58.8589 187.213 57.2851 187.213 55.4959C187.213 53.7067 186.845 52.1376 186.109 50.7793V50.7746Z" fill="#4C679E"/>
<path d="M216.797 56.5862H198.236C198.316 58.2677 198.727 59.7056 199.463 60.8953C200.199 62.0896 201.172 62.9889 202.371 63.5978C203.575 64.2067 204.882 64.5112 206.303 64.5112C208.158 64.5112 209.726 64.0615 210.995 63.1716C212.265 62.277 213.106 61.0733 213.516 59.5557H216.547C215.999 61.7243 214.833 63.4948 213.044 64.8624C211.255 66.2301 209.008 66.9139 206.303 66.9139C204.198 66.9139 202.314 66.4456 200.648 65.5135C198.982 64.5767 197.679 63.2512 196.735 61.5276C195.79 59.8086 195.318 57.7946 195.318 55.4902C195.318 53.1858 195.781 51.167 196.711 49.434C197.641 47.701 198.939 46.3708 200.605 45.4481C202.272 44.5254 204.169 44.0664 206.298 44.0664C208.427 44.0664 210.292 44.5254 211.892 45.4481C213.488 46.3708 214.72 47.612 215.579 49.1671C216.438 50.7268 216.868 52.4551 216.868 54.352C216.868 55.3262 216.84 56.071 216.788 56.5862H216.797ZM212.964 50.0429C212.265 48.8767 211.316 47.9961 210.117 47.4013C208.914 46.8064 207.606 46.5067 206.185 46.5067C204.056 46.5067 202.239 47.1858 200.738 48.5394C199.236 49.893 198.401 51.804 198.24 54.2724H213.974C214.002 52.619 213.667 51.2092 212.969 50.0429H212.964Z" fill="#4C679E"/>
<path d="M223.538 65.1435C221.914 63.9632 221.003 62.3566 220.814 60.3239H223.765C223.902 61.5697 224.497 62.5814 225.549 63.3543C226.602 64.1271 228.013 64.5112 229.788 64.5112C231.346 64.5112 232.569 64.1458 233.456 63.4152C234.344 62.6845 234.787 61.7758 234.787 60.6892C234.787 59.9304 234.542 59.3075 234.051 58.8204C233.56 58.3332 232.937 57.9445 232.186 57.6635C231.436 57.3777 230.416 57.0733 229.132 56.7501C227.466 56.3192 226.116 55.8836 225.077 55.448C224.039 55.0124 223.156 54.3708 222.434 53.5183C221.711 52.6658 221.348 51.5183 221.348 50.0851C221.348 49.0031 221.674 47.9961 222.33 47.0781C222.986 46.1554 223.916 45.4247 225.115 44.8814C226.319 44.3381 227.683 44.0664 229.212 44.0664C231.615 44.0664 233.555 44.6706 235.033 45.8744C236.506 47.0828 237.299 48.7408 237.407 50.8532H234.537C234.457 49.5511 233.942 48.502 233.003 47.701C232.059 46.9001 230.77 46.502 229.132 46.502C227.683 46.502 226.512 46.8392 225.611 47.5184C224.709 48.1975 224.26 49.0359 224.26 50.0382C224.26 50.9047 224.525 51.6167 225.058 52.1741C225.592 52.7314 226.253 53.1623 227.046 53.4761C227.839 53.79 228.901 54.1319 230.241 54.5113C231.851 54.9469 233.135 55.3637 234.093 55.7712C235.047 56.1787 235.868 56.7735 236.553 57.5604C237.237 58.3473 237.591 59.3918 237.62 60.6892C237.62 61.8836 237.294 62.9468 236.638 63.8789C235.982 64.8156 235.066 65.551 233.89 66.0943C232.715 66.6376 231.365 66.9093 229.836 66.9093C227.268 66.9093 225.172 66.3191 223.548 65.1388L223.538 65.1435Z" fill="#4C679E"/>
<path d="M255.109 66.5879L245.89 56.6255V66.5879H243.02V36.5039H245.89V54.3117L254.906 44.3914H258.923L248.311 55.4499L259.003 66.5879H255.109Z" fill="#4C679E"/>
</g>
<defs>
<linearGradient id="paint0_linear_3002_25522" x1="0" y1="34.6675" x2="142.231" y2="34.6675" gradientUnits="userSpaceOnUse">
<stop offset="0.03" stop-color="#005DFD"/>
<stop offset="1" stop-color="#00DAEA"/>
</linearGradient>
<clipPath id="clip0_3002_25522">
<rect width="259" height="82.6596" fill="white" transform="translate(0 0.574219)"/>
</clipPath>
</defs>
</svg>
